<svg xmlns="http://www.w3.org/2000/svg" width="1024" height="768" viewBox="0 0 1024 768"><g fill="none" fill-rule="evenodd" transform="translate(136.235 131.186)"><ellipse cx="375.5" cy="433.173" fill="#F3F3F3" rx="375.5" ry="71.5"/><path fill="#FBFBFB" d="M82.1866264,263.935703 C20.4509444,176.167245 35.6514862,20.3259227 177.942796,1.69085168 C320.234106,-16.9442194 358.858224,125.167831 476.952284,98.8220451 C595.046345,72.4762589 670.580231,123.366532 679.71922,189.257359 C688.858209,255.148186 670.580231,332.85014 558.798952,336.610673 C447.017672,340.371205 424.635046,315.483848 359.111209,322.230085 C293.587372,328.976321 143.922308,351.70416 82.1866264,263.935703 Z"/><path fill="#FBFBFB" d="M405.586338,74.4182829 C433.982801,85.6141064 461.242375,80.5913062 466.4723,63.1995447 C471.702225,45.8077831 452.922036,22.6329664 424.525573,11.4371428 C396.12911,0.241319289 368.869536,5.26411949 363.639611,22.6558811 C358.409686,40.0476427 377.189875,63.2224593 405.586338,74.4182829 Z"/><g transform="translate(78.765 166.814)"><path fill="#00B394" d="M128.193285,79.8687382 C105.989357,128.862701 87.4984921,155.424917 72.7206922,159.555386 C50.5539924,165.751089 55.9630078,140.586378 61.9055656,121.7363 C67.8481234,102.886223 89.0542391,70.356956 107.584993,51.725393 C126.115747,33.09383 146.672621,23.9238394 134.172868,67.9461652 L122.717651,69.9321545 L128.193285,79.8687382 Z"/><path fill="#041046" d="M57.0114095,150.364994 L56.8198347,150.533801 C55.976289,142.631671 58.8713807,131.36088 61.9055656,121.7363 C62.5528601,119.683051 63.3812522,117.467502 64.3675583,115.125294 C66.6030644,132.182717 64.1506275,143.928973 57.0114095,150.364994 Z"/><path stroke="#041046" d="M103.588571,82.8513617 C78.9897819,118.113139 61.7962779,149.859046 52.0080588,178.089084"/><line x1="85.309" x2="99.683" y1="110.511" y2="106.062" stroke="#041046"/><path fill="#85CDB2" d="M52.0080588,148.751166 C30.6296105,150.555116 24.0906261,98.6321988 24.0906261,59.9077055 C24.0906261,21.1832122 32.6984034,-1.69518377 47.9958023,0.0981980689 C63.2932012,1.89157991 73.3865071,146.947215 52.0080588,148.751166 Z"/><path stroke="#041046" d="M44.166685,10.9090114 C38.6974877,75.8275648 40.2696847,131.554256 48.8832761,178.089084"/><line x1="40.981" x2="54.462" y1="67.773" y2="55.008" stroke="#041046"/><line x1="41.734" x2="31.718" y1="46.946" y2="35.491" stroke="#041046"/><path fill="#00B394" d="M7.9763246,108.622045 L1.29043733,110.511386 C5.01644534,129.266289 10.2142381,143.808653 16.8838157,154.138479 C26.8881821,169.633217 42.2761154,171.719412 40.9806556,151.989644 C39.6851958,132.259876 28.3396874,101.747489 21.1739404,91.8190156 C14.0081934,81.8905417 0,60.2392 0,105.142141 L7.9763246,108.622045 Z"/><path stroke="#041046" d="M14.8628766,109.242803 C22.035084,140.857932 32.0581138,163.469832 44.9319659,177.078504"/><line x1="25.463" x2="13.168" y1="143.92" y2="136.056" stroke="#041046"/><path fill="#D8D8D8" d="M20.3258143,180.27101 L81.3597619,180.27101 L73.5348968,254.776259 C67.1445705,256.92542 59.9689578,258 52.0080588,258 C44.0471598,258 36.0947,256.92542 28.1506794,254.776259 L20.3258143,180.27101 Z"/><path fill="#041046" d="M50.4515448,184.976604 C67.5216817,184.976604 81.3597619,182.869838 81.3597619,180.27101 C81.3597619,177.672182 67.5216817,175.565415 50.4515448,175.565415 C33.3814079,175.565415 20.3258143,177.672182 20.3258143,180.27101 C20.3258143,182.869838 33.3814079,184.976604 50.4515448,184.976604 Z"/></g><path fill="#FF6868" fill-rule="nonzero" d="M256.913096,162.173645 C256.682037,156.964195 252.394967,152.81255 247.13779,152.813527 C242.970926,152.814303 239.414063,155.424636 238.000956,159.100845 C236.589176,155.425162 233.033255,152.816151 228.866391,152.816927 C223.702622,152.817887 219.475104,156.825393 219.105626,161.904475 C217.632798,170.467468 231.975868,183.548964 236.382241,187.337606 C237.11137,187.964538 238.185762,187.972938 238.92526,187.357693 C243.437719,183.603276 258.266204,170.547859 256.913096,162.173645 Z" opacity=".2" transform="rotate(-27 238 170.314)"/><path fill="#FF6868" fill-rule="nonzero" d="M548.677068 260.747124C548.443647 255.622958 544.129576 251.538527 538.840212 251.538527 534.647836 251.538527 531.069669 254.105455 529.648578 257.721193 528.227487 254.105455 524.649321 251.538527 520.456945 251.538527 515.261561 251.538527 511.008887 255.47962 510.638068 260.475444 509.157778 268.897914 523.59104 281.767772 528.02508 285.495166 528.758787 286.111964 529.839758 286.120422 530.583672 285.51539 535.123077 281.823293 550.03998 268.984424 548.677068 260.747124zM470.947279 143.617445C470.806858 140.491592 468.2116 138 465.029627 138 462.507579 138 460.355027 139.565882 459.500127 141.771561 458.645228 139.565882 456.492676 138 453.970628 138 450.845191 138 448.286869 140.404152 448.063792 143.451714 447.17328 148.589604 455.856035 156.440498 458.523464 158.714289 458.964847 159.090549 459.615137 159.095709 460.062661 158.726626 462.793474 156.474367 471.767179 148.642377 470.947279 143.617445zM324.965616 8.55849052C324.874038 6.47458839 323.181478 4.81352738 321.106278 4.81352738 319.461464 4.81352738 318.057626 5.85744863 317.500083 7.32790121 316.94254 5.85744863 315.538702 4.81352738 313.893888 4.81352738 311.855559 4.81352738 310.187088 6.41629567 310.041603 8.4480033 309.460834 11.8732634 315.123501 17.1071927 316.863128 18.6230535 317.150987 18.8738936 317.575089 18.8773336 317.866953 18.6312783 319.647918 17.1297717 325.500334 11.9084454 324.965616 8.55849052zM604.967909 68.4774658C604.882435 66.5424138 603.302713 65 601.36586 65 599.8307 65 598.520451 65.9693555 598.000077 67.3347757 597.479704 65.9693555 596.169455 65 594.634295 65 592.731855 65 591.174616 66.4882848 591.03883 68.3748705 590.496779 71.5554692 595.781935 76.4155464 597.405587 77.8231314 597.674255 78.0560544 598.070083 78.0592487 598.342489 77.8307687 600.004723 76.4365126 605.466979 71.5881382 604.967909 68.4774658zM304.967909 88.4774658C304.882435 86.5424138 303.302713 85 301.36586 85 299.8307 85 298.520451 85.9693555 298.000077 87.3347757 297.479704 85.9693555 296.169455 85 294.634295 85 292.731855 85 291.174616 86.4882848 291.03883 88.3748705 290.496779 91.5554692 295.781935 96.4155464 297.405587 97.8231314 297.674255 98.0560544 298.070083 98.0592487 298.342489 97.8307687 300.004723 96.4365126 305.466979 91.5881382 304.967909 88.4774658z" opacity=".2"/><g transform="translate(127.117 78.782)"><path fill="#EE9B8B" d="M277.927198,367.683214 C249.152613,384.969426 224.631917,393.612532 204.365109,393.612532 C173.964898,393.612532 160.381112,392.72759 150.184134,395.582813 C139.987157,398.438036 133.180274,398.712184 133.180274,391.697772 C133.180274,387.021497 137.575492,384.763906 146.365929,384.925 C153.329422,377.393712 162.000693,372.637259 172.379741,370.655641 C182.758788,368.674023 212.220019,359.185549 260.763433,342.190218 L285.712256,342.190218 L277.927198,367.683214 Z"/><path fill="#3E3E49" d="M197.090591,258.973236 C191.564073,265.259347 177.373573,271.847005 154.519093,278.736212 C120.237372,289.070022 64.1363074,283.380353 37.7841262,308.69908 C11.431945,334.017807 37.7841262,373.808545 86.46763,373.808545 C118.923299,373.808545 170.929128,380.409874 242.485116,393.612532 C250.26509,380.633748 251.515626,366.16911 246.236724,350.21862 L264.251065,345.631882 L272.833563,377.839318 C310.984806,370.81587 347.055902,366.07735 381.046851,363.623761 C407.076371,361.744855 433.763251,355.509077 446.64412,342.768995 C458.994199,330.553903 460.709139,303.8908 438.766972,292.462838 L372.350136,272.54042 C318.919541,277.737894 288.975797,273.215499 282.518903,258.973236 L197.090591,258.973236 Z"/><path fill="#FFA798" d="M244.265093,390.434596 C251.071435,390.169299 256.025845,390.349068 259.128325,390.973903 C279.075519,394.991242 279.227213,396.993894 290.74985,398.438036 C302.272487,399.882179 343.827741,394.511605 358.493829,396.474821 C373.159916,398.438036 378.87436,398.438036 378.87436,390.973903 C378.87436,383.50977 365.70298,382.750815 361.29159,380.941976 C356.880199,379.133137 329.709857,375.636883 317.373758,363.033022 C305.037659,350.429161 292.406618,357.613887 286.559437,360.323454 C282.917764,362.010996 272.868639,359.345341 246.915703,352.122989 C248.070511,358.802174 248.647915,365.424093 248.647915,371.988746 C248.647915,375.933444 247.186975,382.082061 244.265093,390.434596 Z"/><path fill="#33343E" d="M282.518903,258.973236 C288.345623,271.825497 313.298418,276.762566 357.377287,273.784443 C321.09593,289.042788 300.18598,306.545799 294.647915,326.292884 L295.849719,325.854949 L295.849719,325.854949 L298.240864,324.993096 C298.638004,324.851011 299.034451,324.709705 299.430206,324.569177 L301.796429,323.735354 L301.796429,323.735354 L304.146036,322.920219 L304.146036,322.920219 L306.479027,322.12377 L306.479027,322.12377 L308.795403,321.346009 C309.949437,320.9618 311.09724,320.584599 312.238812,320.214406 L314.513649,319.483363 L314.513649,319.483363 L316.77187,318.771007 L316.77187,318.771007 L319.013476,318.077338 L319.013476,318.077338 L321.238467,317.402356 L321.238467,317.402356 L323.446841,316.746062 C323.813519,316.638237 324.179505,316.53119 324.544798,316.424923 L326.728249,315.796659 C328.178345,315.384046 329.617364,314.98389 331.045306,314.596193 L333.178911,314.023991 C334.949992,313.554943 336.703765,313.10536 338.44023,312.675243 L340.515681,312.168446 C354.641157,308.769183 367.602853,306.678802 379.40077,305.897303 L381.118987,305.792281 C383.398866,305.66471 385.634436,305.586971 387.825699,305.559065 L388.452811,305.552236 L388.183017,305.566566 C376.146922,306.238111 359.970017,309.839369 339.6523,316.370342 L337.194298,317.168121 L337.194298,317.168121 L334.696545,317.994025 L334.696545,317.994025 L332.159039,318.848055 L332.159039,318.848055 L329.581782,319.73021 C329.148926,319.87958 328.714415,320.030121 328.278246,320.181835 L325.641362,321.106178 C324.755775,321.418979 323.863562,321.736469 322.964725,322.058646 L320.248336,323.039239 C317.512072,324.033895 314.71618,325.070739 311.86066,326.149771 L308.985265,327.242865 C308.50272,327.427392 308.018518,327.61309 307.53266,327.79996 L304.597637,328.935242 L304.597637,328.935242 L301.622862,330.098649 C300.624645,330.491139 299.619803,330.888317 298.608335,331.290182 L295.554056,332.50984 C295.041697,332.71546 294.527682,332.922252 294.01201,333.130216 L290.898104,334.392062 L290.898104,334.392062 L287.744446,335.682033 L287.744446,335.682033 L284.551036,337.00013 L284.551036,337.00013 L281.317874,338.346352 L281.317874,338.346352 L278.044961,339.720699 L278.044961,339.720699 L274.732296,341.123171 L274.732296,341.123171 L271.379879,342.553768 L271.379879,342.553768 L267.98771,344.012491 L267.98771,344.012491 L264.251065,345.631882 L246.236724,350.21862 C239.622009,351.030468 230.243531,349.437193 219.23958,346.426068 L217.617775,345.975409 C217.345584,345.898651 217.072459,345.821077 216.798417,345.742703 L215.143287,345.262969 L215.143287,345.262969 L213.466931,344.764711 L213.466931,344.764711 L211.770143,344.248616 L211.770143,344.248616 L210.053715,343.715372 C209.766051,343.625108 209.477602,343.534157 209.188384,343.442535 L207.443983,342.884857 L207.443983,342.884857 L205.681924,342.31175 C205.38682,342.214984 205.091013,342.117605 204.79452,342.019625 L203.007461,341.424662 L203.007461,341.424662 L201.204726,340.815989 L201.204726,340.815989 L198.472964,339.878774 L198.472964,339.878774 L196.634507,339.238832 L196.634507,339.238832 L194.783149,338.587585 L194.783149,338.587585 L192.919682,337.925721 L192.919682,337.925721 L190.103512,336.914524 L190.103512,336.914524 L186.313638,335.535519 L186.313638,335.535519 L184.405492,334.83439 L184.405492,334.83439 L180.56675,333.412312 L180.56675,333.412312 L176.703356,331.968396 L176.703356,331.968396 L169.902174,329.405537 L169.902174,329.405537 L159.674967,325.53394 L155.404012,323.922399 L155.404012,323.922399 C131.723695,315.008808 104.614628,312.341471 74.0768113,315.92039 C102.326993,308.822456 135.101031,310.480393 172.398923,320.894201 C173.54287,304.90726 165.049729,291.511936 146.919499,280.708231 C149.549301,280.120732 152.089015,279.468729 154.519093,278.736212 L156.013426,278.282415 L156.013426,278.282415 L157.48265,277.829493 L157.48265,277.829493 L158.926764,277.377444 L158.926764,277.377444 L161.045854,276.70101 L161.045854,276.70101 L162.427193,276.251146 C162.655324,276.176242 162.882408,276.101374 163.108446,276.026542 L164.45212,275.57799 L164.45212,275.57799 L166.42055,274.906799 L166.42055,274.906799 L167.70145,274.460431 L167.70145,274.460431 L168.957239,274.014937 L168.957239,274.014937 L170.187918,273.570317 L170.187918,273.570317 L171.393488,273.126571 L171.393488,273.126571 L172.573947,272.683699 L172.573947,272.683699 L173.729296,272.241701 L173.729296,272.241701 L174.859536,271.800577 L174.859536,271.800577 L175.964665,271.360327 C176.146761,271.287024 176.327811,271.213759 176.507814,271.140529 L177.575279,270.70159 L177.575279,270.70159 L178.617633,270.263524 L178.617633,270.263524 L179.634878,269.826333 L179.634878,269.826333 L180.627013,269.390016 L180.627013,269.390016 L181.594037,268.954572 L181.594037,268.954572 L182.535952,268.520002 L182.535952,268.520002 L183.452757,268.086307 L183.452757,268.086307 L184.344452,267.653485 L184.344452,267.653485 L185.211037,267.221537 L185.211037,267.221537 L186.052512,266.790463 L186.052512,266.790463 L186.868877,266.360264 C187.002845,266.288636 187.135768,266.217046 187.267643,266.145491 L188.046344,265.716602 C188.301725,265.573785 188.552922,265.431113 188.799934,265.288587 L189.528414,264.861446 L189.528414,264.861446 L190.231784,264.435179 C190.692328,264.151293 191.136131,263.867988 191.563195,263.585267 L192.191235,263.161622 L192.191235,263.161622 L192.794166,262.73885 C194.466896,261.542236 195.837261,260.356146 196.90526,259.18058 L197.090591,258.973236 L282.518903,258.973236 Z M398.729527,305.85665 C395.899556,305.65768 392.984232,305.554705 389.983555,305.547725 L388.452811,305.552236 L389.025746,305.524029 C392.647771,305.360787 395.882364,305.471661 398.729527,305.85665 Z"/><g transform="matrix(-1 0 0 1 476.75 100.529)"><path fill="#FFA798" d="M207.743225,0 C193.764556,4.33261161 181.856405,2.36150056 174.099284,8.15429255 C160.214736,18.5228673 158.803219,58.7377144 156.654253,75.0760057 C154.505287,91.414297 152.34086,113.13274 146.666605,120.804944 C142.94004,125.843662 118.155318,144.264597 72.3124405,176.067749 L72.3124473,176.067758 C71.1377595,176.882689 69.6174383,177.008705 68.3246083,176.3983 C65.2463427,174.944908 60.7264878,174.218212 54.7650436,174.218212 C43.7643071,174.218212 31.1879032,174.838504 23.4595671,169.79084 C15.7312309,164.743177 17.8790547,176.287662 23.4595671,179.296547 C27.1799086,181.302469 30.0715629,182.647228 32.13453,183.330823 C24.6119679,185.809783 16.6312708,186.218776 8.19243881,184.557804 C-4.46580919,182.066345 -1.32814586,189.036198 9.9256524,190.86512 C17.4281846,192.084401 24.4725511,192.980508 31.058752,193.553441 C46.2714187,201.403192 56.2020696,205.328067 60.8507046,205.328067 C65.4993397,205.328067 72.6490276,202.166265 82.2997684,195.842659 L131.589342,173.934257 C158.195474,162.108269 178.326215,139.273658 186.723388,111.394853 L186.851021,110.971109 L186.851021,110.971109 L207.743225,0 Z"/><path fill="#E08F81" d="M180.027624,55.0541455 C183.777399,62.4636407 188.509501,68.0493231 194.22393,71.8111926 L186.851021,110.971109 L186.723388,111.394853 C180.081591,133.445772 166.099132,152.340983 147.377925,165.129096 C172.372929,140.159595 177.509735,120.841626 174.956366,99.5609122 L174.87665,98.9154335 C172.725746,81.9773122 174.442738,67.3568829 180.027624,55.0541455 Z" opacity=".5"/><path fill="#FFA698" stroke="#CE7768" d="M27.3560532,191.934255 C25.4298981,191.140838 23.7702134,189.876506 22.376999,188.141259 L16.1196689,179.380368 C14.9637237,177.761928 13.2287038,176.651031 11.275054,176.278461 C10.4145103,176.114351 9.58386458,176.678923 9.41975498,177.539466 C9.35739044,177.866488 9.39949851,178.204843 9.54011476,178.506604 L15.6571616,191.63372 C17.3967566,195.366871 20.6918981,198.144651 24.6655152,199.227693 L30.7493009,200.88588 L30.7493009,200.88588 C32.4558151,205.280837 37.5544954,207.099362 46.0453419,206.341454 C50.2876107,209.358798 57.2568243,208.642892 66.9529828,204.193734"/><path fill="#FFA698" stroke="#CE7768" d="M30.7493009,200.88588 L23.3888821,181.844883 C22.9719265,180.766242 23.5083286,179.553822 24.5869697,179.136866 C24.9707177,178.988526 25.3896628,178.956523 25.7914897,179.044855 C28.184111,179.570811 30.1801388,181.210792 31.1602374,183.455937 L37.5921674,198.189774 L37.5921674,198.189774 L44.5855516,200.88588"/><path fill="#FFA698" stroke="#CE7768" d="M46.0453419,206.341454 L36.5293789,191.552167 C36.0916519,190.871871 36.2882928,189.965534 36.9685886,189.527808 C37.2989894,189.315216 37.7009447,189.24427 38.08416,189.330907 C40.3639942,189.846331 42.4475384,191.006442 44.0864457,192.672962 L51.0065158,199.709623 L51.0065158,199.709623 C54.596714,198.218898 59.912203,197.473535 66.9529828,197.473535"/><path stroke="#CE7768" stroke-linecap="round" d="M32.13453,183.330823 C41.5329043,187.438157 51.3437577,188.30359 61.5670902,185.927122"/><line x1="32.135" x2="51.482" y1="183.331" y2="193.757" stroke="#CE7768" stroke-linecap="round"/></g><path fill="#222652" d="M213.224103,61.2684413 C200.803461,88.2228193 200.803461,107.506154 213.224103,119.118447 C231.855066,136.536885 227.075147,68.9023683 224.851584,62.6652477 C223.369208,58.5071673 219.493381,58.0415652 213.224103,61.2684413 Z"/><path fill="#222652" d="M258.224103,61.2684413 C245.803461,88.2228193 245.803461,107.506154 258.224103,119.118447 C276.855066,136.536885 272.075147,68.9023683 269.851584,62.6652477 C268.369208,58.5071673 264.493381,58.0415652 258.224103,61.2684413 Z" transform="matrix(-1 0 0 1 520.995 0)"/><path fill="#FFA798" d="M229.788014,93.031383 C219.083057,98.3695035 211.45706,101.813063 206.910023,103.362061 C193.494766,107.932118 183.27502,109.089978 176.800231,113.196754 C162.1502,122.488856 158.803219,159.266298 156.654253,175.604589 C154.505287,191.94288 152.34086,213.661323 146.666605,221.333527 C142.925992,226.39124 119.32604,244.56199 75.8667494,275.845777 L75.8667434,275.845768 C74.9433248,276.510483 73.7805267,276.750495 72.6693836,276.505733 C67.346033,275.333108 61.3779197,274.746795 54.7650436,274.746795 C43.7643071,274.746795 31.1879032,275.367087 23.4595671,270.319424 C15.7312309,265.27176 17.8790547,276.816245 23.4595671,279.82513 C27.1799086,281.831052 30.0715629,283.175811 32.13453,283.859406 C24.6119679,286.338366 16.6312708,286.747359 8.19243881,285.086387 C-4.46580919,282.594928 -1.32814586,289.564782 9.9256524,291.393703 C17.4281846,292.612984 24.4725511,293.509091 31.058752,294.082024 C46.2714187,301.931775 56.2020696,305.85665 60.8507046,305.85665 C65.4993397,305.85665 72.6490276,302.694848 82.2997684,296.371243 L131.589342,274.46284 C158.195474,262.636853 178.326215,239.802241 186.723388,211.923436 L186.851021,211.499692 L186.851021,211.499692 C193.677401,225.739954 197.090591,241.564469 197.090591,258.973236 C204.960559,272.89735 218.398085,279.859406 237.403169,279.859406 C256.408253,279.859406 271.446831,272.89735 282.518903,258.973236 C280.112277,239.441722 281.265278,226.032358 285.977907,218.745144 C293.046849,207.814323 302.168482,188.881801 289.215921,167.399537 C280.58088,153.078028 278.34854,131.732203 282.518903,103.362061 C270.741213,101.602595 261.094076,98.5642488 253.577492,94.2470236 L229.788014,93.031383 Z"/><path fill="#E08F81" d="M174.314911,152.52299 C178.193032,157.553292 183.104711,161.29089 189.049946,163.735784 L189.647915,163.975964 L209.695691,174.969262 L191.990522,224.482067 C190.691028,220.389487 189.1432,216.412171 187.34704,212.550121 L186.851021,211.499692 L186.723388,211.923436 C181.711753,228.562179 172.520632,243.404185 160.267853,255.181487 C172.421621,239.138705 179.720115,218.068542 176.25143,203.645847 L176.138307,203.192617 C172.242903,188.140728 171.635104,171.250852 174.314911,152.52299 Z" opacity=".5"/><g transform="translate(204.648)"><path fill="#FFA798" d="M19.3890894,80.7820072 L49.98546,80.7820072 L49.98546,109.733198 C49.98546,118.182152 43.1362291,125.031383 34.6872747,125.031383 C26.2383202,125.031383 19.3890894,118.182152 19.3890894,109.733198 L19.3890894,80.7820072 L19.3890894,80.7820072 Z"/><path fill="#E08F81" d="M49.9856651,80.7820072 L49.9856651,83.9788671 C46.2666001,92.4799357 36.0680277,96.8222326 19.389948,97.0057578 L19.3890894,80.7820072 L49.9856651,80.7820072 Z"/><path fill="#222652" d="M4.97070049,51.1973323 C3.1953425,31.643686 4.75462306,18.7336429 9.64854219,12.4672032 C16.9894209,3.06754352 24.3889727,0.187225777 37.6631976,1.25119857 C50.9374224,2.31517136 60.9198725,10.8555899 63.093196,19.746173 C64.5420783,25.6732283 65.1822095,34.7783821 65.0135895,47.0616345 C61.5789606,57.2807593 59.8616461,62.3903217 59.8616461,62.3903217 C59.8616461,62.3903217 42.5639304,60.4524792 7.96849893,56.5767942 L4.97070049,51.1973323 Z" transform="rotate(2 34.65 31.716)"/><path fill="#FFA798" d="M36.3230315,14.8158368 C23.810609,14.8158368 11.3316255,16.2975609 10.8318078,32.395307 C10.498596,43.1271377 9.72650585,48.8405704 8.51553726,49.535605 C6.4269566,45.4589126 4.5321946,43.6236897 2.83125127,44.0299363 C0.279836272,44.6393063 -0.761442514,48.8184827 0.601935063,53.0770638 C1.96531264,57.3356448 6.38762876,66.5024247 11.3412951,66.5024247 C14.0287065,77.5450739 19.8957802,85.3776091 28.942516,90.0000306 C32.3463113,91.3958406 35.206487,91.9247975 37.5230431,91.5869011 C40.9978771,91.0800564 50.5290763,89.1511891 58.3710531,66.5024247 C60.783807,66.2255019 62.5888721,64.7450504 63.7862485,62.0610704 C65.5823132,58.0351004 68.0808574,53.0770638 67.9979911,48.126325 C67.9151248,43.1755862 62.4357064,41.0505441 60.3281454,48.126325 C59.3098332,45.424142 58.800677,40.1804694 58.800677,32.395307 C58.800677,20.7175634 48.835454,14.8158368 36.3230315,14.8158368 Z"/><g transform="translate(17 37.031)"><path stroke="#3E3E49" stroke-linecap="round" stroke-width="2" d="M0,2.32443252 C3.44251337,4.4408921e-16 7.91481647,-0.581108129 13.4169093,0.581108129"/><g stroke-linecap="round" transform="matrix(-1 0 0 1 36 0)"><path stroke="#3E3E49" stroke-width="2" d="M0,2.32443252 C3.44251337,4.4408921e-16 7.91481647,-0.581108129 13.4169093,0.581108129"/><path stroke="#CE7768" d="M13.2221843 8.13872237C9.19753703 9.9338417 5.07471525 9.9338417.853718999 8.13872237M34.2221843 8.13872237C30.197537 9.9338417 26.0747152 9.9338417 21.853719 8.13872237"/></g><path fill="#E08F80" d="M12.5939973,23.2423058 C16.2439585,25.6985914 19.6385647,25.6985914 22.7778157,23.2423058 C21.4377945,25.7650303 19.7841924,27.0263926 17.8170096,27.0263926 C15.8498267,27.0263926 14.1088226,25.7650303 12.5939973,23.2423058 Z"/><g transform="translate(9 34)"><path fill="#FFF" d="M0,0 C6,2.92710001 12,2.92710001 18,0 C15.0838315,2.06734471 11.8858539,3.06621088 8.40606707,2.99659852 C4.92628026,2.92698616 2.1242579,1.92811998 0,0 Z" opacity=".3"/><path stroke="#CE7768" stroke-linecap="round" d="M0,0 C6,2.66666667 12,2.66666667 18,0"/></g></g><g stroke="#CE7768" stroke-linecap="round" transform="translate(3.945 47.71)"><path d="M1.62382485,4.54747351e-13 C4.52485841,4.02613244 5.4918696,7.59660746 4.52485841,10.7114251"/><line x1="4.887" y1="8.171" y2="5.356"/></g><g stroke="#CE7768" stroke-linecap="round" transform="matrix(-1 0 0 1 64.832 47.71)"><path d="M1.62382485,4.54747351e-13 C4.52485841,4.02613244 5.4918696,7.59660746 4.52485841,10.7114251"/><line x1="4.887" y1="8.171" y2="5.356"/></g><path fill="#222652" d="M52.146281,15.8429161 C42.5441179,28.6352274 28.1060247,35.031383 8.83200136,35.031383 L12.8579237,15.8429161 L34,5.52618575 L52.146281,15.8429161 Z"/><path fill="#222652" d="M49.0022811,13.7597429 C50.3535961,19.0524686 51.4015961,22.7350052 52.146281,24.8073528 C54.434826,31.1760342 58.8237481,36.0620446 59.9445138,42.7457994 L58.528464,15.7472731 L49.0022811,13.7597429 Z"/><path stroke="#222652" d="M49.9557408,17.0195616 C40.2234632,31.2376315 27.1880547,37.2415719 10.8495154,35.031383"/></g><path fill="#E08F81" d="M212.685339,101.09531 L212.267629,103.626844 L212.267629,103.626844 L211.714749,107.071228 L211.714749,107.071228 L211.325942,109.574322 L211.325942,109.574322 L210.959293,112.008678 L210.959293,112.008678 L210.614803,114.374296 L210.614803,114.374296 L210.292473,116.671176 L210.292473,116.671176 L210.089896,118.164242 L210.089896,118.164242 L209.804497,120.346558 L209.804497,120.346558 L209.626541,121.763248 L209.626541,121.763248 L209.458434,123.149388 L209.458434,123.149388 L209.224739,125.171316 L209.224739,125.171316 L209.081253,126.48108 L209.081253,126.48108 L208.947615,127.760294 L208.947615,127.760294 L208.823826,129.008958 L208.823826,129.008958 L208.709885,130.227071 L208.709885,130.227071 L208.605793,131.414635 L208.605793,131.414635 L208.511549,132.571648 L208.511549,132.571648 L208.427153,133.698111 L208.427153,133.698111 L208.352606,134.794023 L208.352606,134.794023 L208.287907,135.859386 L208.287907,135.859386 L208.233057,136.894198 L208.233057,136.894198 L208.188055,137.89846 L208.188055,137.89846 L208.152901,138.872171 L208.152901,138.872171 L208.127596,139.815333 C208.124199,139.969981 208.121213,140.123355 208.118636,140.275457 L208.108104,141.172793 C208.107169,141.319804 208.106645,141.465541 208.106531,141.610005 L208.110771,142.461516 L208.110771,142.461516 L208.124859,143.282477 L208.124859,143.282477 L208.148796,144.072887 L208.148796,144.072887 L208.182582,144.832747 L208.182582,144.832747 L208.226215,145.562057 C208.242401,145.800069 208.260229,146.032988 208.279698,146.260817 L208.343028,146.929026 C208.627423,149.649586 209.168287,151.574567 209.965621,152.703969 C214.701781,159.412618 226.454894,165.662527 261.371519,160.277255 L262.436706,160.110492 C281.2617,157.119949 280.826773,161.692 261.131926,173.826648 L259.599082,174.762808 L259.599082,174.762808 L257.992174,175.72805 C257.718184,175.891347 257.441108,176.055856 257.160945,176.221577 L255.44294,177.230442 L255.44294,177.230442 L253.65087,178.26839 L253.65087,178.26839 L251.784735,179.33542 L251.784735,179.33542 L249.844535,180.431532 L249.844535,180.431532 L247.830271,181.556727 L247.830271,181.556727 L245.741942,182.711004 C245.387715,182.905807 245.030402,183.101822 244.670003,183.299048 L242.470576,184.496948 C242.097833,184.699022 241.722004,184.902307 241.343089,185.106804 L198.220719,164.344908 L205.336689,103.887581 C205.856134,103.717461 206.38059,103.542419 206.910023,103.362061 L207.656667,103.100624 L207.656667,103.100624 L208.454899,102.807444 L208.454899,102.807444 L209.304719,102.48252 L209.304719,102.48252 L210.206126,102.125854 L210.206126,102.125854 L211.15912,101.737444 L211.15912,101.737444 L212.163703,101.31729 C212.335432,101.24462 212.509311,101.170626 212.685339,101.09531 Z"/><path fill="#E08F80" d="M218.683228,188.278778 L283.328697,224.622281 C282.981047,225.748282 282.678047,226.951077 282.419697,228.230666 C267.805935,237.82215 249.849957,243.42661 228.552374,245.044582 L227.535678,245.118615 C194.405942,247.427108 211.066914,263.706123 247.212052,279.191707 C244.070329,279.636986 240.800109,279.859406 237.403169,279.859406 C218.398085,279.859406 204.960559,272.89735 197.090591,258.973236 C197.090591,245.710981 195.109707,233.368166 191.147937,221.94479 L218.683228,188.278778 Z" opacity=".5"/><path fill="#FFA698" stroke="#CE7768" d="M27.3672815,292.462838 C26.2305272,292.154296 24.5670997,290.889964 22.376999,288.669842 L16.1196689,279.908951 C14.9637237,278.290511 13.2287038,277.179614 11.275054,276.807044 C10.4145103,276.642934 9.58386458,277.207506 9.41975498,278.06805 C9.35739044,278.395071 9.39949851,278.733426 9.54011476,279.035187 L15.6571616,292.162303 C17.3967566,295.895455 20.6918981,298.673234 24.6655152,299.756277 L30.7493009,301.414463 L30.7493009,301.414463 C32.4558151,305.80942 37.5544954,307.627945 46.0453419,306.870038 C50.2876107,309.887382 57.2568243,309.171475 66.9529828,304.722317"/><path fill="#FFA698" stroke="#CE7768" d="M30.7493009,301.414463 L23.3888821,282.373467 C22.9719265,281.294825 23.5083286,280.082405 24.5869697,279.665449 C24.9707177,279.517109 25.3896628,279.485106 25.7914897,279.573438 C28.184111,280.099395 30.1801388,281.739375 31.1602374,283.98452 L37.5921674,298.718357 L37.5921674,298.718357 L44.5855516,301.414463"/><path fill="#FFA698" stroke="#CE7768" d="M46.0453419,306.870038 L36.5293789,292.08075 C36.0916519,291.400454 36.2882928,290.494118 36.9685886,290.056391 C37.2989894,289.843799 37.7009447,289.772853 38.08416,289.85949 C40.3639942,290.374914 42.4475384,291.535026 44.0864457,293.201545 L51.0065158,300.238206 L51.0065158,300.238206 C54.596714,298.747481 59.912203,298.002118 66.9529828,298.002118"/><path fill="#FF6868" fill-rule="nonzero" d="M202.978101,104.632157 C198.310462,127.261297 194.4534,141.094711 191.414012,146.419755 C176.686321,172.22284 177.174873,181.076457 178.852969,191.634184 C182.011859,211.508314 188.218567,207.970718 193.72839,230.455413 C224.693738,241.609519 254.154802,241.328198 282.111582,229.61145 C284.175861,222.650119 287.229389,215.631309 291.272166,208.555022 C300.391722,191.634184 296.932033,177.867117 289.211868,160.934767 C283.967176,149.43178 280.917444,130.06855 280.062672,102.845078 L270.534982,100.963361 C272.037932,127.172376 271.994161,142.324507 270.403671,146.419755 C267.950422,152.736463 266.53811,163.286389 239.03919,163.286389 C211.54027,163.286389 205.343954,155.160989 205.76242,143.383347 C206.029499,135.866468 208.034937,121.849611 211.832781,101.430413 L202.978101,104.632157 Z"/><path fill="#E45A5A" fill-rule="nonzero" d="M286.150041,218.669515 C284.534652,222.33247 283.188499,225.979782 282.111582,229.61145 C254.154802,241.328198 224.693738,241.609519 193.72839,230.455413 C193.368914,228.988448 193.006471,227.632251 192.642102,226.373092 L192.329338,225.317257 C192.068349,224.456665 191.806528,223.643581 191.544255,222.873002 L191.229335,221.968389 L191.229335,221.968389 L190.914126,221.102661 C190.861575,220.961506 190.809019,220.821892 190.756459,220.683778 L190.44109,219.872772 C190.388531,219.740498 190.335974,219.609644 190.283424,219.48017 C200.832423,224.514062 214.492858,227.34687 231.264811,227.980337 C247.774694,228.603906 265.958133,225.538743 285.815129,218.784847 L286.150041,218.669515 Z"/><path stroke="#CE7768" stroke-linecap="round" d="M32.13453 283.859406C45.7940529 289.826512 57.0739203 291.563384 65.9741321 289.070022M32.13453 283.859406C45.3109376 291.598293 52.5853805 295.467736 53.9578589 295.467736"/></g></g></svg>