<svg xmlns="http://www.w3.org/2000/svg" enable-background="new 0 0 3000 3000" viewBox="0 0 3000 3000"><linearGradient id="a" x1="318.888" x2="2681.113" y1="2140.001" y2="2140.001" gradientUnits="userSpaceOnUse"><stop offset=".213" stop-color="#f9edab"/><stop offset="1" stop-color="#f9ed97"/></linearGradient><path fill="url(#a)" d="M390.402,2082.418l-71.514,50.948c0,0,841.758,20.186,1226.895,106.436
				c385.107,86.279,1187.871,175.341,1132.617-106.436c-55.254-281.806-687.686-144.697-687.686-144.697L390.402,2082.418z"/><ellipse cx="598.526" cy="2163.98" fill="#0d6130" rx="157.794" ry="15.615"/><linearGradient id="b" x1="993.843" x2="993.843" y1="1748.595" y2="2572.459" gradientUnits="userSpaceOnUse"><stop offset="0" stop-color="#b0e572"/><stop offset=".543" stop-color="#619247"/></linearGradient><path fill="url(#b)" d="M1668.799,2133.482H318.888c14.268-61.728,65.391-113.349,134.649-140.127
				c25.692-10.02,53.936-16.583,83.613-19.014c18.339-49.248,50.156-93.896,92.05-131.455
				c80.684-72.216,198.837-117.773,330.557-117.773c181.318,0,336.972,86.367,404.531,209.795
				c8.556-0.703,17.169-1.202,25.929-1.202c127.676,0,231.151,81.593,231.151,182.198c0,1.026,0,1.875-0.146,2.726
				C1638.331,2121.5,1654.386,2126.569,1668.799,2133.482z"/><linearGradient id="c" x1="1393.373" x2="1393.373" y1="1453.337" y2="2909.212" gradientTransform="matrix(-1 0 0 1 3125.879 0)" gradientUnits="userSpaceOnUse"><stop offset="0" stop-color="#b0e572"/><stop offset=".543" stop-color="#619247"/></linearGradient><path fill="url(#c)" d="M786.612,2133.482H2678.4c-19.981-109.073-91.583-200.303-188.731-247.617
				c-35.946-17.726-75.527-29.297-117.129-33.604c-25.722-87.01-70.313-165.966-129.052-232.295
				c-113.026-127.646-278.613-208.125-463.183-208.125c-254.121,0-472.206,152.607-566.953,370.693
				c-11.982-1.201-24.052-2.08-36.298-2.08c-178.974,0-323.936,144.199-323.936,321.973c0,1.787,0,3.339,0.175,4.833
				C829.327,2112.271,806.827,2121.295,786.612,2133.482z"/><path fill="#b47954" d="M611.037,2112.827c0,0-3.721,33.604-12.365,49.336h-24.726
						c9.873-14.093,14.091-52.119,14.091-52.119s7.062-188.174-26.103-231.827C528.829,1834.508,520.392,1769,520.392,1769
						l22.558,2.841c0.323,7.764,1.962,14.942,4.571,21.563c5.244,22.969,16.347,59.766,37.47,87.657
						C618.097,1924.712,611.037,2112.827,611.037,2112.827z"/><path fill="#955b43" d="M644.406,1893.013c-15.528,38.058-18.31,138.077,2.813,205.752c21.152,67.618,0,63.399,0,63.399
						h-48.546c8.643-15.732,12.365-49.336,12.365-49.336s7.06-188.115-26.046-231.767c-21.123-27.891-32.226-64.688-37.47-87.657
						c14.766,38.79,60.703,57.334,60.703,57.334l-1.202-10.869l-6.298-57.715l30.526-2.314l0.528,4.482l8.407,73.008
						c0,0,13.125-32.432,13.125-26.337c0,3.163,3.78,5.829,7.353,7.617c3.399,1.699,6.74,2.724,6.74,2.724s-1.7,3.135-5.157,10.488
						C658.468,1859.908,652.521,1873.121,644.406,1893.013z"/><linearGradient id="d" x1="445.509" x2="648.946" y1="1708.985" y2="1708.985" gradientUnits="userSpaceOnUse"><stop offset="0" stop-color="#b0e572"/><stop offset=".543" stop-color="#619247"/><stop offset="1" stop-color="#b0e572"/></linearGradient><path fill="url(#d)" d="M648.946,1709c0,56.161-45.528,101.718-101.719,101.718
						c-56.19,0-101.718-45.556-101.718-101.718c0-56.192,45.528-101.748,101.718-101.748
						C603.418,1607.252,648.946,1652.809,648.946,1709z"/><linearGradient id="e" x1="560.529" x2="580.714" y1="1706.261" y2="1706.261" gradientUnits="userSpaceOnUse"><stop offset="0" stop-color="#b0e572"/><stop offset=".543" stop-color="#619247"/><stop offset="1" stop-color="#b0e572"/></linearGradient><path fill="url(#e)" d="M580.714,1704.254c-6.563,1.904-13.242,3.281-20.185,4.013L580.714,1704.254z"/><path fill="#b47954" d="M670.099,1837.174c0,3.427-3.75,6.182-8.379,6.182c-4.629,0-8.849-9.609-8.849-13.008
						c0-3.427,4.22,0.645,8.849,0.645C666.349,1830.992,670.099,1833.775,670.099,1837.174z"/><linearGradient id="f" x1="426.085" x2="668.311" y1="1587.887" y2="1587.887" gradientUnits="userSpaceOnUse"><stop offset="0" stop-color="#b0e572"/><stop offset=".543" stop-color="#619247"/><stop offset="1" stop-color="#b0e572"/></linearGradient><path fill="url(#f)" d="M547.227,1466.773c-66.884,0-121.142,54.229-121.142,121.143
						c0,9.903,1.23,19.482,3.514,28.74c12.862,52.97,60.645,92.345,117.627,92.345c4.512,0,8.877-0.236,13.302-0.734l20.185-4.013
						c50.536-14.502,87.51-61.056,87.597-116.25c0-0.03,0-0.03,0-0.089C668.311,1521.002,614.142,1466.773,547.227,1466.773z"/><path fill="#009444" d="M668.311,1588.004c-0.087,55.194-37.06,101.748-87.597,116.25l-20.185,4.013
						c-4.425,0.498-8.79,0.734-13.302,0.734c-56.982,0-104.765-39.375-117.627-92.345c14.122-7.266,30.177-11.397,47.256-11.397
						c28.096,0,53.643,11.104,72.335,29.268c6.415,6.211,12.012,13.183,16.611,20.859c14.796-39.404,52.823-67.47,97.471-67.47
						C664.972,1587.916,666.67,1587.974,668.311,1588.004z" opacity=".2"/><linearGradient id="g" x1="296.122" x2="1425.852" y1="1732.1" y2="1732.1" gradientUnits="userSpaceOnUse"><stop offset="0" stop-color="#b0e572"/><stop offset=".543" stop-color="#619247"/><stop offset="1" stop-color="#b0e572"/></linearGradient><path fill="url(#g)" d="M586.515,1732.115c0,21.24-6.387,40.956-17.256,57.422
						c-18.633,28.125-50.536,46.582-86.778,46.582c-57.48,0-104.004-46.524-104.004-104.004
						c0-57.452,46.524-104.034,104.004-104.034c28.096,0,53.643,11.133,72.335,29.268
						C574.414,1676.246,586.515,1702.789,586.515,1732.115z"/><linearGradient id="h" x1="460.991" x2="726.993" y1="1723.443" y2="1723.443" gradientUnits="userSpaceOnUse"><stop offset="0" stop-color="#b0e572"/><stop offset=".543" stop-color="#619247"/><stop offset="1" stop-color="#b0e572"/></linearGradient><path fill="url(#h)" d="M586.515,1732.115c0,21.24-6.387,40.956-17.256,57.422
						c-19.57-18.867-31.728-45.41-31.728-74.766c0-21.24,6.357-40.986,17.285-57.422
						C574.414,1676.246,586.515,1702.789,586.515,1732.115z"/><linearGradient id="i" x1="239.702" x2="1369.75" y1="1714.772" y2="1714.772" gradientUnits="userSpaceOnUse"><stop offset="0" stop-color="#b0e572"/><stop offset=".543" stop-color="#619247"/><stop offset="1" stop-color="#b0e572"/></linearGradient><path fill="url(#i)" d="M772.96,1714.771c0,57.451-46.611,104.034-104.063,104.034
						c-57.451,0-104.034-46.583-104.034-104.034c0-57.48,46.583-104.033,104.034-104.033
						C726.349,1610.738,772.96,1657.291,772.96,1714.771z"/><linearGradient id="j" x1="523.606" x2="539.356" y1="2180.178" y2="2047.543" gradientUnits="userSpaceOnUse"><stop offset=".378" stop-color="#7c8795"/><stop offset=".995" stop-color="#bcbec0"/></linearGradient><path fill="url(#j)" d="M621.027,2118.922c0,30.234-40.343,54.726-90.117,54.726
					c-49.806,0-90.177-24.492-90.177-54.726c0-30.206,40.371-54.698,90.177-54.698
					C580.684,2064.224,621.027,2088.716,621.027,2118.922z"/><linearGradient id="k" x1="622.583" x2="566.224" y1="2154.034" y2="2106.791" gradientUnits="userSpaceOnUse"><stop offset=".378" stop-color="#7c8795"/><stop offset=".995" stop-color="#bcbec0"/></linearGradient><path fill="url(#k)" d="M656.241,2129.732c0,24.258-28.067,43.915-62.666,43.915
					c-34.629,0-62.665-19.657-62.665-43.915c0-24.287,28.036-43.974,62.665-43.974
					C628.174,2085.758,656.241,2105.446,656.241,2129.732z"/><linearGradient id="l" x1="621.027" x2="737.1" y1="2128.853" y2="2128.853" gradientUnits="userSpaceOnUse"><stop offset=".378" stop-color="#7c8795"/><stop offset=".995" stop-color="#bcbec0"/></linearGradient><ellipse cx="679.063" cy="2128.853" fill="url(#l)" rx="58.036" ry="44.794"/><linearGradient id="m" x1="1796.768" x2="1796.768" y1="1791.504" y2="2523.521" gradientUnits="userSpaceOnUse"><stop offset="0" stop-color="#b0e572"/><stop offset=".543" stop-color="#619247"/></linearGradient><path fill="url(#m)" d="M2369.61,2133.482H1223.926c0-62.96,46.201-117.51,113.409-143.438
				c21.006-8.203,44.091-13.564,68.379-15.528c15.028-40.313,41.044-76.845,75.262-107.549
				c66.006-59.063,162.657-96.328,270.381-96.328c148.302,0,275.597,70.635,330.879,171.563c6.974-0.526,14.034-0.966,21.182-0.966
				c104.443,0,189.024,66.738,189.024,149.032c0,0.821,0,1.494-0.059,2.228C2324.434,2097.799,2351.856,2112.827,2369.61,2133.482z"/><linearGradient id="n" x1="1201.236" x2="1201.236" y1="1911.397" y2="2386.779" gradientUnits="userSpaceOnUse"><stop offset="0" stop-color="#b0e572"/><stop offset=".543" stop-color="#619247"/></linearGradient><path fill="url(#n)" d="M1573.321,2133.482H829.152c11.542-13.418,29.355-23.174,50.127-26.601
				c-0.03-0.498-0.03-0.968-0.03-1.436c0-53.468,54.99-96.827,122.813-96.827c4.659,0,9.258,0.234,13.74,0.615
				c35.919-65.538,118.595-111.387,214.951-111.387c44.736,0,86.484,9.873,122.022,27.041
				c48.867,23.643,85.956,61.056,102.45,105.323c8.175,0.673,16.173,1.964,23.849,3.721
				C1533.595,2046.676,1573.321,2086.432,1573.321,2133.482z"/><g><path fill="#fdc348" d="M2278.146,2060.152l-3.135,7.294c0,0,6.24,66.036,27.158,88.038
					c20.919,22.061,39.112,5.772,39.112,5.772L2278.146,2060.152z"/><path fill="#e09a01" d="M1880.089,2126.978l-7.413,13.067l341.602,33.252l60.732-292.998
					c0,0-212.286,25.313-306.504-2.52L1880.089,2126.978z"/><path fill="#ce8e00" d="M2019.249 1916.45c39.141-10.135 78.867-18.75 118.975-26.25-60.353 1.875-127.12.177-169.718-12.422l-21.035 59.268C1971.055 1929.4 1995.138 1922.692 2019.249 1916.45zM2235.87 1932.212c-65.097 10.226-129.902 22.149-192.95 38.496-30.234 7.823-61.054 16.553-87.685 26.163-11.396 4.073-22.676 8.379-33.633 13.095l-29.032 81.855c87.833-73.74 201.651-125.038 325.722-152.752 15.44-3.458 30.938-6.651 46.524-9.552l.381-1.817C2255.382 1929.196 2245.597 1930.69 2235.87 1932.212zM2210.44 2000.944c-33.427 8.524-59.825 16.435-89.825 28.153-30.556 11.953-59.911 25.693-87.421 41.543-22.764 13.155-49.804 31.583-72.627 49.336-10.664 8.321-21.182 16.728-31.085 25.605l284.796 27.716 37.762-182.168C2238.067 1994.176 2224.18 1997.428 2210.44 2000.944z"/><path fill="#754521" d="M1969.269,1880.299c-0.234-0.85-0.528-1.728-0.762-2.52c3.72-12.246,5.536-19.365,4.863-19.482
					c-0.585-0.147-2.958,4.835-6.65,13.77c-3.106-9.786-5.157-15.323-5.772-15.352c-0.732-0.029,0.615,7.558,3.544,20.8
					c-9.901,24.522-26.893,70.137-45.439,122.52c-27.891,78.75-48.808,142.94-46.699,143.409
					c2.08,0.439,26.397-63.018,54.288-141.768c14.443-40.724,26.982-77.52,35.449-103.653
					C1962.325,1891.49,1964.64,1885.309,1969.269,1880.299z"/><path fill="#e09a01" d="M2281.192,1883.99l106.26,267.978l-46.172,9.288c0,0-33.838-13.302-44.034-51.915
					c-10.166-38.613-41.484-64.571-41.484-64.571S2263.702,1901.188,2281.192,1883.99z"/><path fill="#fdc348" d="M2276.622,1883.99c0,0-14.326,202.442,12.012,249.492c26.309,47.05-15.909,31.377-15.909,31.377
					l-58.446,8.438L2276.622,1883.99z"/><path fill="#754521" d="M2335.186,2010.494c-22.705-55.137-43.417-103.389-55.693-130.254
					c2.256-13.828,3.165-21.797,2.373-21.885c-0.643-0.089-2.49,5.566-5.214,15.762c-4.893-10.459-7.998-16.377-8.673-16.349
					c-0.819,0.03,1.817,8.262,7.032,22.53c-7.149,27.919-18.925,79.688-31.407,139.042c-18.75,89.179-32.051,161.778-29.677,162.071
					s19.512-71.778,38.292-160.986c11.396-54.317,20.801-102.451,25.869-131.865c10.458,27.978,28.066,72.363,48.633,122.315
					c34.774,84.462,64.863,152.871,67.206,152.782C2396.24,2163.541,2369.962,2094.986,2335.186,2010.494z"/></g><g><path fill="#fdc348" d="M1594.62,2041.607l-4.014,9.286c0,0,7.969,84.199,34.629,112.296
					c26.661,28.067,49.865,7.295,49.865,7.295L1594.62,2041.607z"/><path fill="#e09a01" d="M1087.11,2126.831l-9.462,16.671l435.526,42.363l77.432-373.564
					c0,0-270.673,32.285-390.791-3.224L1087.11,2126.831z"/><path fill="#ce8e00" d="M1264.533 1858.384c49.891-12.948 100.547-23.906 151.67-33.456-76.964 2.401-162.071.205-216.387-15.851l-26.807 75.587C1203.067 1874.908 1233.799 1866.353 1264.533 1858.384zM1540.714 1878.482c-82.998 13.036-165.615 28.242-246.006 49.101-38.555 9.99-77.843 21.095-111.827 33.311-14.502 5.244-28.857 10.693-42.861 16.729l-37.002 104.355c111.972-94.014 257.051-159.433 415.283-194.766 19.659-4.393 39.433-8.438 59.326-12.157l.469-2.314C1565.616 1874.615 1553.136 1876.519 1540.714 1878.482zM1508.283 1966.109c-42.627 10.869-76.29 20.976-114.522 35.918-38.966 15.234-76.407 32.754-111.446 52.969-29.063 16.758-63.516 40.254-92.637 62.899-13.593 10.577-27.012 21.329-39.609 32.609l363.105 35.361 48.165-232.266C1543.527 1957.466 1525.801 1961.627 1508.283 1966.109z"/><path fill="#754521" d="M1200.811,1812.301c-0.323-1.113-0.674-2.198-0.996-3.224
					c4.776-15.615,7.091-24.667,6.182-24.843c-0.732-0.176-3.72,6.151-8.466,17.548c-3.956-12.452-6.563-19.541-7.354-19.571
					c-0.938-0.028,0.792,9.669,4.542,26.544c-12.657,31.258-34.278,89.413-57.921,156.21
					c-35.595,100.401-62.256,182.256-59.589,182.813c2.695,0.586,33.692-80.333,69.258-180.732
					c18.398-51.913,34.365-98.818,45.176-132.129C1191.934,1826.569,1194.922,1818.658,1200.811,1812.301z"/><path fill="#e09a01" d="M1598.517,1817.017l135.468,341.661l-58.885,11.807c0,0-43.125-16.934-56.104-66.153
					c-13.008-49.248-52.91-82.323-52.91-82.323S1576.192,1838.932,1598.517,1817.017z"/><path fill="#fdc348" d="M1592.658,1817.017c0,0-18.282,258.076,15.321,318.076c33.546,60-20.273,40.02-20.273,40.02
					l-74.532,10.752L1592.658,1817.017z"/><path fill="#754521" d="M1667.305,1978.325c-28.945-70.313-55.341-131.865-70.986-166.113
					c2.871-17.607,4.042-27.744,3.047-27.891c-0.849-0.117-3.193,7.12-6.679,20.068c-6.212-13.329-10.166-20.859-11.045-20.829
					c-1.026,0.058,2.314,10.547,8.964,28.74c-9.14,35.595-24.14,101.601-40.018,177.246
					c-23.936,113.76-40.869,206.278-37.853,206.66c3.048,0.381,24.873-91.494,48.808-205.254
					c14.561-69.256,26.514-130.605,32.99-168.105c13.329,35.625,35.801,92.226,62.021,155.917
					c44.327,107.725,82.676,194.913,85.665,194.796C1745.176,2173.414,1711.662,2086.021,1667.305,1978.325z"/></g><g><path fill="#874e24" d="M1953.858,2161.724c0,5.948-4.833,10.782-10.752,10.782h-125.361
					c-5.948,0-10.752-4.834-10.752-10.782l0,0c0-5.948,4.805-10.752,10.752-10.752h125.361
					C1949.025,2150.972,1953.858,2155.777,1953.858,2161.724L1953.858,2161.724z"/><linearGradient id="o" x1="1760.265" x2="2006.759" y1="2004.447" y2="2004.447" gradientUnits="userSpaceOnUse"><stop offset=".16" stop-color="#ff8e02"/><stop offset=".957" stop-color="#f9ed32"/></linearGradient><path fill="url(#o)" d="M1790.118,2160.464c0,0-27.51-8.76-22.353-47.666c5.155-38.907-7.5-39.375-7.5-39.375
					s23.905,17.813,25.313,28.125c0,0,35.155,0.468,30.938-24.844c-4.22-25.313,6.563-15.938,10.78-1.406
					c4.22,14.531,33.282,11.718,6.095-9.844s-31.641-78.281-30.821-105.44c0.821-27.216,2.696-0.966,30.351,31.847
					c27.657,32.813,26.867,13.593,15.557-32.813c-11.337-46.377,8.818-71.69,13.976-104.502
					c5.155-32.812-16.875,76.845,6.093,81.533c22.97,4.688,37.032-3.281,37.032-16.377c0-13.125-14.532,40.752-3.75,61.847
					c10.78,21.093,8.905,15.938,21.093-10.313s27.657-7.032,10.782-41.25c-16.875-34.19-8.438-52.472-8.438-52.472
					s-0.938,30,22.5,49.688c23.438,19.659,47.314,22.002,28.564,59.972c-18.722,37.968-15.439,60-14.034,60
					c1.407,0,19.688-2.813,15.47-25.313c-4.22-22.5,15.907,36.563,8.877,60.938c-7.032,24.375,8.906-11.719,17.841-15.938
					c8.877-4.219-10.927,18.281-12.978,48.75c-2.051,30.468-17.051,44.766-21.065,43.887
					C1966.426,2158.589,1790.118,2160.464,1790.118,2160.464z"/><linearGradient id="p" x1="3927.073" x2="4000.408" y1="2045.215" y2="2163.678" gradientTransform="matrix(-1 0 0 1 5862.14 0)" gradientUnits="userSpaceOnUse"><stop offset=".16" stop-color="#ff8e02"/><stop offset=".5" stop-color="#f9ed32"/><stop offset=".979" stop-color="#f9ed79"/></linearGradient><path fill="url(#p)" d="M1932.295,2132.311c0,0,2.198-1.26,5.099-3.956c0.585-0.556,1.202-1.171,1.817-1.905
					c6.035-9.521,12.949-20.566,11.982-33.427c0-0.585,0-1.171-0.03-1.699c0-0.76-0.029-1.464-0.058-2.167
					c0-0.762-0.029-1.522-0.087-2.343c-1.641-12.627-4.395-23.643-4.395-36.064c1.407,5.508-2.754,8.291-6.885,6.885
					c-1.377,15.176,4.131,31.728-9.637,41.367c-4.131,2.754-2.754-4.131-5.744-5.538c-0.439-0.732-0.966-1.406-1.552-2.021
					c0.205-0.353-0.058-1.202-0.526-1.994c-1.817-2.871-4.6,1.29-5.978-0.087c2.754-1.377,5.538-1.377,6.387-3.282
					c0.469-0.409,0.909-0.879,1.377-1.347c0.439-0.44,0.849-0.938,1.288-1.407c0.645-0.702,1.232-1.464,1.817-2.254
					c5.683-9.639,5.683-20.685,8.438-30.323c-4.131,1.377-8.26,4.131-11.776,2.782c-0.528-0.264-1.113-0.526-1.729-0.791
					c-0.644-0.234-1.288-0.469-1.992-0.703c-0.351-0.674-0.76-1.377-1.171-2.081c-0.206-1.024-0.41-2.079-0.615-3.105
					c-3.34-16.817-5.302-33.603-2.022-51.24c-13.768,2.754-12.391,23.438-22.528,32.724c-0.645,0.264-1.26,0.439-1.788,0.615
					c-1.113,0.353-1.875,0.675-1.875,1.143c-0.117,0.821-0.175,1.67-0.234,2.49c0.234,15.411,8.526,31.934,1.171,46.494
					c-0.526,0.703-1.171,1.348-1.845,2.022c-1.349,1.288-2.988,2.52-4.98,3.691c-0.411,0.528-0.762,1.201-0.996,1.905
					c-0.703,1.904-0.792,4.365-0.645,7.119c0.028,0.908,0.087,1.845,0.176,2.813c0.469,3.75,0.469,7.881,0.292,12.129
					c-0.146,1.024-0.292,2.051-0.526,3.016c-0.234,0.968-0.528,1.905-0.879,2.843c-0.615,0.615-1.26,1.23-1.905,1.845
					c-0.673,0.645-1.318,1.232-2.021,1.847c-4.131,4.131,0,9.639-1.554,14.179c-0.058,0.732-0.058,1.436,0.06,2.081
					c0.38,2.666,2.051,4.746,5.478,6.034C1891.924,2144.498,1932.295,2132.311,1932.295,2132.311z"/><path fill="#874e24" d="M1780.362,2174.702c1.113,5.304,5.831,8.701,10.548,7.588l183.252-43.417
						c4.716-1.115,7.646-6.328,6.532-11.631l0,0c-1.113-5.302-5.83-8.701-10.547-7.588l-183.252,43.417
						C1782.178,2164.186,1779.249,2169.4,1780.362,2174.702L1780.362,2174.702z"/><linearGradient id="q" x1="1874.287" x2="1980.908" y1="2130.901" y2="2130.901" gradientUnits="userSpaceOnUse"><stop offset=".16" stop-color="#ff8e02"/><stop offset=".5" stop-color="#f9ed32"/><stop offset=".979" stop-color="#f9ed79"/></linearGradient><path fill="url(#q)" d="M1882.666,2141.627c6.475-0.528,12.949-0.733,19.425-1.173
						c2.93-0.176,5.829-0.381,8.73-0.644c4.922-0.498,5.831-0.586,2.666-0.294c3.633-0.702,7.442-1.347,11.016-2.432
						c5.742-2.813,11.601-5.566,17.607-7.675c12.1-4.248,27.042-4.922,38.731,1.171c0.117-1.083,0.087-2.198-0.147-3.339
						c-1.113-5.302-5.83-8.701-10.547-7.588l-95.86,22.706C1877.071,2142.125,1879.884,2141.861,1882.666,2141.627z" opacity=".5"/><linearGradient id="r" x1="1780.126" x2="1808.194" y1="2170.267" y2="2170.267" gradientUnits="userSpaceOnUse"><stop offset=".16" stop-color="#ff8e02"/><stop offset=".5" stop-color="#f9ed32"/><stop offset=".979" stop-color="#f9ed79"/></linearGradient><path fill="url(#r)" d="M1807.549,2159c0.206-0.323,0.44-0.645,0.645-0.968l-21.298,5.039
						c-4.718,1.115-7.647,6.329-6.534,11.631c1.113,5.304,5.831,8.701,10.548,7.588l11.601-2.754
						C1802.422,2172.184,1804.093,2164.918,1807.549,2159z" opacity=".5"/><path fill="#b29976" d="M1780.128,2172.506c0,5.506,4.219,9.99,9.405,9.99s9.375-4.484,9.375-9.99
						c0-5.538-4.189-10.02-9.375-10.02S1780.128,2166.968,1780.128,2172.506z"/><polygon fill="#030313" points="1827.295 2141.539 1841.622 2150.972 1827.97 2154.019 1881.964 2162.486 1891.368 2160.319"/><path fill="#7d6b44" d="M1993.497,2174.702c-0.351,1.554-1.054,2.99-1.992,4.161c-2.198,2.782-5.714,4.189-9.228,3.427
						l-194.942-43.417c-5.04-1.115-8.145-6.328-6.974-11.631c0.615-2.725,2.256-4.981,4.395-6.328
						c1.465-0.938,3.163-1.466,4.893-1.466c0.643,0,1.288,0.06,1.962,0.206l194.942,43.417
						C1991.563,2164.156,1994.668,2169.4,1993.497,2174.702z"/><path fill="#874e24" d="M1991.505,2178.863c-2.198,2.782-5.714,4.189-9.228,3.427l-194.942-43.417
						c-5.04-1.115-8.145-6.328-6.974-11.631c0.615-2.725,2.256-4.981,4.395-6.328c0.176,0.03,0.351,0.088,0.557,0.117
						l200.333,53.086C1988.253,2174.821,1990.303,2176.577,1991.505,2178.863z"/><path fill="#b29976" d="M1993.761,2172.506c0,5.506-4.482,9.99-10.02,9.99c-5.508,0-9.99-4.484-9.99-9.99
						c0-5.538,4.482-10.02,9.99-10.02C1989.279,2162.486,1993.761,2166.968,1993.761,2172.506z"/><polygon fill="#604029" points="1844.025 2179.214 1848.243 2178.101 1884.366 2160.464 1841.827 2170.454"/><path fill="#b29976" d="M1848.477,2176.46c0,3.341-2.694,6.036-6.034,6.036c-3.311,0-6.006-2.696-6.006-6.036
						c0-3.31,2.695-6.006,6.006-6.006C1845.783,2170.454,1848.477,2173.15,1848.477,2176.46z"/><polygon fill="#604029" points="1924.678 2179.214 1920.46 2178.101 1884.366 2160.464 1926.876 2170.454"/><path fill="#b29976" d="M1920.225,2176.46c0,3.341,2.695,6.036,6.006,6.036c3.34,0,6.036-2.696,6.036-6.036
						c0-3.31-2.696-6.006-6.036-6.006C1922.92,2170.454,1920.225,2173.15,1920.225,2176.46z"/><linearGradient id="s" x1="1813.956" x2="1928.385" y1="1993.489" y2="2178.336" gradientUnits="userSpaceOnUse"><stop offset=".16" stop-color="#ff8e02"/><stop offset=".5" stop-color="#f9ed32"/><stop offset=".979" stop-color="#f9ed79"/></linearGradient><path fill="url(#s)" d="M1820.001,2126.89c0,0-27.627-15.732-29.824-53.174
					c-2.226-37.411,7.324-34.833,8.409-55.371c1.113-20.536,10.458,8.086,9.375,28.975c-1.113,20.917,20.331,61.083,36.591,47.313
					c16.201-13.74-18.456-19.804-10.752-63.808c7.706-44.032,21.446-62.724,10.752-115.547c0,0,53.056,57.774,38.203,85.84
					c-14.853,28.036-3.839,74.825,11.016,95.185c14.853,20.331,23.349,37.617,7.002,43.829
					C1884.424,2146.343,1820.001,2126.89,1820.001,2126.89z"/><linearGradient id="t" x1="1861.554" x2="1864.722" y1="1912.671" y2="1917.788" gradientUnits="userSpaceOnUse"><stop offset=".16" stop-color="#ff8e02"/><stop offset=".5" stop-color="#f9ed32"/><stop offset=".979" stop-color="#f9ed79"/></linearGradient><path fill="url(#t)" d="M1862.481,1912.408c-0.41,1.788-0.498,3.574-0.498,5.391c0,1.23,1.875,1.23,1.875,0
					c0-1.641,0.059-3.282,0.44-4.893C1864.561,1911.734,1862.775,1911.236,1862.481,1912.408z"/><linearGradient id="u" x1="1864.666" x2="1867.238" y1="1898.613" y2="1902.768" gradientUnits="userSpaceOnUse"><stop offset=".16" stop-color="#ff8e02"/><stop offset=".5" stop-color="#f9ed32"/><stop offset=".979" stop-color="#f9ed79"/></linearGradient><path fill="url(#u)" d="M1867.023,1901.861c-0.439-0.85-0.673-1.583-0.381-2.548
					c0.323-1.173-1.494-1.671-1.817-0.498c-0.411,1.464-0.089,2.666,0.557,4.012
					C1865.938,1903.912,1867.549,1902.946,1867.023,1901.861z"/><linearGradient id="v" x1="1872.172" x2="1874.727" y1="1919.254" y2="1923.381" gradientUnits="userSpaceOnUse"><stop offset=".16" stop-color="#ff8e02"/><stop offset=".5" stop-color="#f9ed32"/><stop offset=".979" stop-color="#f9ed79"/></linearGradient><path fill="url(#v)" d="M1874.493,1922.486c-0.381-0.85-0.323-1.875-0.323-2.784c0-1.23-1.875-1.23-1.875,0
					c0,1.29,0.059,2.55,0.587,3.75C1873.38,1924.537,1874.991,1923.599,1874.493,1922.486z"/><linearGradient id="w" x1="1879.363" x2="1882.569" y1="1906.326" y2="1911.505" gradientUnits="userSpaceOnUse"><stop offset=".16" stop-color="#ff8e02"/><stop offset=".5" stop-color="#f9ed32"/><stop offset=".979" stop-color="#f9ed79"/></linearGradient><path fill="url(#w)" d="M1881.642,1906.315c-0.353-1.143-2.167-0.675-1.817,0.498
					c0.44,1.435,0.44,2.958,0.44,4.452c0,1.202,1.875,1.202,1.875,0C1882.14,1909.595,1882.11,1907.896,1881.642,1906.315z"/><linearGradient id="x" x1="1890.547" x2="1893.416" y1="1914.799" y2="1919.434" gradientUnits="userSpaceOnUse"><stop offset=".16" stop-color="#ff8e02"/><stop offset=".5" stop-color="#f9ed32"/><stop offset=".979" stop-color="#f9ed79"/></linearGradient><path fill="url(#x)" d="M1891.045,1915.015v4.219c0,1.202,1.875,1.202,1.875,0v-4.219
					C1892.92,1913.785,1891.045,1913.785,1891.045,1915.015z"/><linearGradient id="y" x1="1833.591" x2="1834.757" y1="1957.168" y2="1959.052" gradientUnits="userSpaceOnUse"><stop offset=".16" stop-color="#ff8e02"/><stop offset=".5" stop-color="#f9ed32"/><stop offset=".979" stop-color="#f9ed79"/></linearGradient><path fill="url(#y)" d="M1834.474,1957.174h-0.617c-1.2,0-1.2,1.875,0,1.875h0.617
					C1835.704,1959.049,1835.704,1957.174,1834.474,1957.174z"/><linearGradient id="z" x1="1830.856" x2="1831.863" y1="1966.689" y2="1968.315" gradientUnits="userSpaceOnUse"><stop offset=".16" stop-color="#ff8e02"/><stop offset=".5" stop-color="#f9ed32"/><stop offset=".979" stop-color="#f9ed79"/></linearGradient><path fill="url(#z)" d="M1831.368,1966.549c-1.23,0-1.23,1.903,0,1.903
					C1832.569,1968.452,1832.569,1966.549,1831.368,1966.549z"/><linearGradient id="A" x1="1821.862" x2="1825.234" y1="1945.402" y2="1950.848" gradientUnits="userSpaceOnUse"><stop offset=".16" stop-color="#ff8e02"/><stop offset=".5" stop-color="#f9ed32"/><stop offset=".979" stop-color="#f9ed79"/></linearGradient><path fill="url(#A)" d="M1824.747,1950.377c-0.468-1.554-0.585-3.135-0.585-4.746c0-1.202-1.847-1.202-1.847,0
					c0,1.786,0.117,3.544,0.645,5.244C1823.311,1952.017,1825.128,1951.519,1824.747,1950.377z"/><linearGradient id="B" x1="1908.984" x2="1909.98" y1="1944.826" y2="1946.434" gradientUnits="userSpaceOnUse"><stop offset=".16" stop-color="#ff8e02"/><stop offset=".5" stop-color="#f9ed32"/><stop offset=".979" stop-color="#f9ed79"/></linearGradient><path fill="url(#B)" d="M1909.474,1944.694c-1.202,0-1.202,1.875,0,1.875
					C1910.704,1946.569,1910.704,1944.694,1909.474,1944.694z"/><linearGradient id="C" x1="1911.48" x2="1912.465" y1="1955.454" y2="1957.044" gradientUnits="userSpaceOnUse"><stop offset=".16" stop-color="#ff8e02"/><stop offset=".5" stop-color="#f9ed32"/><stop offset=".979" stop-color="#f9ed79"/></linearGradient><path fill="url(#C)" d="M1911.964,1955.327c-1.202,0-1.202,1.847,0,1.847
					C1913.194,1957.174,1913.194,1955.327,1911.964,1955.327z"/><linearGradient id="D" x1="1976.477" x2="1977.47" y1="2008.58" y2="2010.183" gradientUnits="userSpaceOnUse"><stop offset=".16" stop-color="#ff8e02"/><stop offset=".5" stop-color="#f9ed32"/><stop offset=".979" stop-color="#f9ed79"/></linearGradient><path fill="url(#D)" d="M1976.974,2008.444c-1.202,0-1.202,1.875,0,1.875
					C1978.174,2010.319,1978.174,2008.444,1976.974,2008.444z"/><linearGradient id="E" x1="1988.342" x2="1989.335" y1="2016.695" y2="2018.298" gradientUnits="userSpaceOnUse"><stop offset=".16" stop-color="#ff8e02"/><stop offset=".5" stop-color="#f9ed32"/><stop offset=".979" stop-color="#f9ed79"/></linearGradient><path fill="url(#E)" d="M1988.839,2016.559c-1.202,0-1.202,1.875,0,1.875
					C1990.039,2018.434,1990.039,2016.559,1988.839,2016.559z"/><linearGradient id="F" x1="2001.347" x2="2003.857" y1="2040.74" y2="2044.795" gradientUnits="userSpaceOnUse"><stop offset=".16" stop-color="#ff8e02"/><stop offset=".5" stop-color="#f9ed32"/><stop offset=".979" stop-color="#f9ed79"/></linearGradient><path fill="url(#F)" d="M2004.66,2043.277c-0.733-1.377-1.699-2.285-3.31-2.343
					c-1.202-0.058-1.202,1.817,0,1.875c0.907,0.028,1.288,0.643,1.669,1.406C2003.575,2045.299,2005.216,2044.331,2004.66,2043.277z
					"/><linearGradient id="G" x1="2017.727" x2="2018.72" y1="2091.695" y2="2093.298" gradientUnits="userSpaceOnUse"><stop offset=".16" stop-color="#ff8e02"/><stop offset=".5" stop-color="#f9ed32"/><stop offset=".979" stop-color="#f9ed79"/></linearGradient><path fill="url(#G)" d="M2018.224,2091.559c-1.202,0-1.202,1.875,0,1.875
					C2019.424,2093.434,2019.424,2091.559,2018.224,2091.559z"/><linearGradient id="H" x1="1781.379" x2="1786.33" y1="2061.297" y2="2069.296" gradientUnits="userSpaceOnUse"><stop offset=".16" stop-color="#ff8e02"/><stop offset=".5" stop-color="#f9ed32"/><stop offset=".979" stop-color="#f9ed79"/></linearGradient><path fill="url(#H)" d="M1785.402,2069.117c-0.645-2.578-1.173-5.215-1.232-7.881c0-1.201-1.875-1.201-1.875,0
					c0.059,2.841,0.617,5.625,1.29,8.379C1783.878,2070.787,1785.694,2070.289,1785.402,2069.117z"/><linearGradient id="I" x1="1778.987" x2="1779.979" y1="2043.56" y2="2045.163" gradientUnits="userSpaceOnUse"><stop offset=".16" stop-color="#ff8e02"/><stop offset=".5" stop-color="#f9ed32"/><stop offset=".979" stop-color="#f9ed79"/></linearGradient><path fill="url(#I)" d="M1779.483,2043.424c-1.2,0-1.2,1.875,0,1.875
					C1780.684,2045.299,1780.684,2043.424,1779.483,2043.424z"/><linearGradient id="J" x1="1777.119" x2="1778.114" y1="2067.931" y2="2069.539" gradientUnits="userSpaceOnUse"><stop offset=".16" stop-color="#ff8e02"/><stop offset=".5" stop-color="#f9ed32"/><stop offset=".979" stop-color="#f9ed79"/></linearGradient><path fill="url(#J)" d="M1777.608,2067.799c-1.2,0-1.2,1.875,0,1.875
					C1778.839,2069.674,1778.839,2067.799,1777.608,2067.799z"/><linearGradient id="K" x1="1784.606" x2="1785.61" y1="2083.555" y2="2085.177" gradientUnits="userSpaceOnUse"><stop offset=".16" stop-color="#ff8e02"/><stop offset=".5" stop-color="#f9ed32"/><stop offset=".979" stop-color="#f9ed79"/></linearGradient><path fill="url(#K)" d="M1785.108,2083.414c-1.2,0-1.2,1.905,0,1.905
					C1786.309,2085.319,1786.309,2083.414,1785.108,2083.414z"/><linearGradient id="L" x1="1783.377" x2="1784.362" y1="2040.448" y2="2042.038" gradientUnits="userSpaceOnUse"><stop offset=".16" stop-color="#ff8e02"/><stop offset=".5" stop-color="#f9ed32"/><stop offset=".979" stop-color="#f9ed79"/></linearGradient><path fill="url(#L)" d="M1783.878,2040.319c-1.23,0-1.23,1.845,0,1.845
					C1785.079,2042.164,1785.079,2040.319,1783.878,2040.319z"/><linearGradient id="M" x1="1766.502" x2="1767.487" y1="2061.073" y2="2062.663" gradientUnits="userSpaceOnUse"><stop offset=".16" stop-color="#ff8e02"/><stop offset=".5" stop-color="#f9ed32"/><stop offset=".979" stop-color="#f9ed79"/></linearGradient><path fill="url(#M)" d="M1767.003,2060.944c-1.23,0-1.23,1.845,0,1.845
					C1768.204,2062.789,1768.204,2060.944,1767.003,2060.944z"/><linearGradient id="N" x1="1811.484" x2="1812.48" y1="2054.191" y2="2055.799" gradientUnits="userSpaceOnUse"><stop offset=".16" stop-color="#ff8e02"/><stop offset=".5" stop-color="#f9ed32"/><stop offset=".979" stop-color="#f9ed79"/></linearGradient><path fill="url(#N)" d="M1811.974,2054.059c-1.202,0-1.202,1.875,0,1.875
					C1813.204,2055.934,1813.204,2054.059,1811.974,2054.059z"/><linearGradient id="O" x1="1810.862" x2="1811.854" y1="2043.56" y2="2045.163" gradientUnits="userSpaceOnUse"><stop offset=".16" stop-color="#ff8e02"/><stop offset=".5" stop-color="#f9ed32"/><stop offset=".979" stop-color="#f9ed79"/></linearGradient><path fill="url(#O)" d="M1811.358,2043.424c-1.2,0-1.2,1.875,0,1.875
					C1812.559,2045.299,1812.559,2043.424,1811.358,2043.424z"/><linearGradient id="P" x1="1834.612" x2="1835.607" y1="2074.819" y2="2076.427" gradientUnits="userSpaceOnUse"><stop offset=".16" stop-color="#ff8e02"/><stop offset=".5" stop-color="#f9ed32"/><stop offset=".979" stop-color="#f9ed79"/></linearGradient><path fill="url(#P)" d="M1835.118,2074.684c-1.23,0-1.23,1.875,0,1.875
					C1836.319,2076.559,1836.319,2074.684,1835.118,2074.684z"/><linearGradient id="Q" x1="1908.984" x2="1909.98" y1="1976.701" y2="1978.309" gradientUnits="userSpaceOnUse"><stop offset=".16" stop-color="#ff8e02"/><stop offset=".5" stop-color="#f9ed32"/><stop offset=".979" stop-color="#f9ed79"/></linearGradient><path fill="url(#Q)" d="M1909.474,1976.569c-1.202,0-1.202,1.875,0,1.875
					C1910.704,1978.444,1910.704,1976.569,1909.474,1976.569z"/><linearGradient id="R" x1="1907.724" x2="1908.72" y1="1960.441" y2="1962.049" gradientUnits="userSpaceOnUse"><stop offset=".16" stop-color="#ff8e02"/><stop offset=".5" stop-color="#f9ed32"/><stop offset=".979" stop-color="#f9ed79"/></linearGradient><path fill="url(#R)" d="M1908.214,1960.309c-1.202,0-1.202,1.875,0,1.875
					C1909.444,1962.184,1909.444,1960.309,1908.214,1960.309z"/><linearGradient id="S" x1="1982.154" x2="1984.421" y1="1999.938" y2="2003.6" gradientUnits="userSpaceOnUse"><stop offset=".16" stop-color="#ff8e02"/><stop offset=".5" stop-color="#f9ed32"/><stop offset=".979" stop-color="#f9ed79"/></linearGradient><path fill="url(#S)" d="M1985.382,2002.232c-0.323-0.879-0.673-1.875-1.524-2.373
					c-0.907-0.556-1.875,0.087-2.548,0.732c-0.879,0.821,0.44,2.139,1.318,1.318c0.206-0.176,0.498-0.292,0.351-0.409
					c0.323,0.262,0.469,0.849,0.586,1.23C1983.946,2003.873,1985.763,2003.375,1985.382,2002.232z"/><linearGradient id="T" x1="1989.494" x2="1991.212" y1="2010.487" y2="2013.262" gradientUnits="userSpaceOnUse"><stop offset=".16" stop-color="#ff8e02"/><stop offset=".5" stop-color="#f9ed32"/><stop offset=".979" stop-color="#f9ed79"/></linearGradient><path fill="url(#T)" d="M1991.388,2011.841c-0.147-0.176-0.323-0.381-0.351-0.585
					c-0.147-1.202-2.022-1.202-1.875,0c0.087,0.732,0.38,1.347,0.877,1.903C1990.89,2014.039,1992.208,2012.692,1991.388,2011.841z"/><linearGradient id="U" x1="1993" x2="1995.931" y1="2016.69" y2="2021.424" gradientUnits="userSpaceOnUse"><stop offset=".16" stop-color="#ff8e02"/><stop offset=".5" stop-color="#f9ed32"/><stop offset=".979" stop-color="#f9ed79"/></linearGradient><path fill="url(#U)" d="M1993.527,2016.851v4.395c0,1.2,1.875,1.2,1.875,0v-4.395
					C1995.402,2015.68,1993.527,2015.68,1993.527,2016.851z"/><linearGradient id="V" x1="1991.282" x2="1995.769" y1="2041.974" y2="2049.222" gradientUnits="userSpaceOnUse"><stop offset=".16" stop-color="#ff8e02"/><stop offset=".5" stop-color="#f9ed32"/><stop offset=".979" stop-color="#f9ed79"/></linearGradient><path fill="url(#V)" d="M1994.757,2049.107c-0.557-2.373-0.587-4.805-0.587-7.236c0-1.232-1.875-1.232-1.875,0
					c0,2.607,0.059,5.185,0.645,7.734C1993.204,2050.777,1995.021,2050.279,1994.757,2049.107z"/><linearGradient id="W" x1="2004.602" x2="2005.595" y1="2110.445" y2="2112.048" gradientUnits="userSpaceOnUse"><stop offset=".16" stop-color="#ff8e02"/><stop offset=".5" stop-color="#f9ed32"/><stop offset=".979" stop-color="#f9ed79"/></linearGradient><path fill="url(#W)" d="M2005.099,2110.309c-1.202,0-1.202,1.875,0,1.875
					C2006.299,2112.184,2006.299,2110.309,2005.099,2110.309z"/><linearGradient id="X" x1="1995.503" x2="1996.613" y1="2128.832" y2="2130.625" gradientUnits="userSpaceOnUse"><stop offset=".16" stop-color="#ff8e02"/><stop offset=".5" stop-color="#f9ed32"/><stop offset=".979" stop-color="#f9ed79"/></linearGradient><path fill="url(#X)" d="M1995.46,2129.117c-0.909,0.41-0.85,1.962,0.264,1.817
					c0.877-0.117,1.522-0.615,1.552-1.583C1997.335,2128.238,1995.753,2128.18,1995.46,2129.117z"/><linearGradient id="Y" x1="1992.099" x2="1993.095" y1="2142.316" y2="2143.924" gradientUnits="userSpaceOnUse"><stop offset=".16" stop-color="#ff8e02"/><stop offset=".5" stop-color="#f9ed32"/><stop offset=".979" stop-color="#f9ed79"/></linearGradient><path fill="url(#Y)" d="M1992.589,2142.184c-1.202,0-1.202,1.875,0,1.875
					C1993.819,2144.059,1993.819,2142.184,1992.589,2142.184z"/><linearGradient id="Z" x1="1999.592" x2="2000.585" y1="2101.07" y2="2102.673" gradientUnits="userSpaceOnUse"><stop offset=".16" stop-color="#ff8e02"/><stop offset=".5" stop-color="#f9ed32"/><stop offset=".979" stop-color="#f9ed79"/></linearGradient><path fill="url(#Z)" d="M2000.089,2100.934c-1.202,0-1.202,1.875,0,1.875
					C2001.289,2102.809,2001.289,2100.934,2000.089,2100.934z"/></g><g opacity=".2"><path fill="#fff" d="M960.489 881.011c0 11.572-9.375 20.977-20.976 20.977-11.601 0-20.976-9.405-20.976-20.977 0-11.601 9.375-20.976 20.976-20.976C951.114 860.035 960.489 869.41 960.489 881.011zM1397.247 1016.656c0 19.541-15.82 35.391-35.391 35.391-19.569 0-35.39-15.85-35.39-35.391 0-19.54 15.821-35.391 35.39-35.391C1381.426 981.265 1397.247 997.115 1397.247 1016.656zM1034.962 1355.093c0 20.274-16.436 36.71-36.71 36.71-20.274 0-36.71-16.436-36.71-36.71 0-20.302 16.435-36.738 36.71-36.738C1018.527 1318.355 1034.962 1334.791 1034.962 1355.093zM2137.989 1022.252c0 11.571-9.403 20.976-20.976 20.976s-20.976-9.405-20.976-20.976c0-11.602 9.404-20.977 20.976-20.977S2137.989 1010.65 2137.989 1022.252zM2340.049 1371.881c0 11.571-9.375 20.976-20.976 20.976-11.573 0-20.976-9.405-20.976-20.976 0-11.603 9.403-20.978 20.976-20.978C2330.674 1350.904 2340.049 1360.279 2340.049 1371.881zM2214.571 1173.833c0 19.571-15.849 35.391-35.391 35.391-19.571 0-35.42-15.82-35.42-35.391 0-19.57 15.849-35.39 35.42-35.39C2198.722 1138.444 2214.571 1154.263 2214.571 1173.833zM427.666 1180.279c0 11.602-9.375 20.977-20.976 20.977-11.572 0-20.976-9.375-20.976-20.977 0-11.601 9.404-20.976 20.976-20.976C418.291 1159.303 427.666 1168.678 427.666 1180.279zM643.029 965.884c0 11.573-9.375 20.977-20.978 20.977-11.573 0-20.976-9.405-20.976-20.977 0-11.601 9.404-20.976 20.976-20.976C633.654 944.908 643.029 954.283 643.029 965.884zM1631.739 1482.329c0 11.602-9.375 20.977-20.976 20.977-11.573 0-20.976-9.375-20.976-20.977 0-11.571 9.403-20.976 20.976-20.976C1622.364 1461.353 1631.739 1470.758 1631.739 1482.329zM1964.581 1391.803c0 11.573-9.405 20.976-20.977 20.976-11.571 0-20.976-9.403-20.976-20.976 0-11.603 9.405-20.978 20.976-20.978C1955.176 1370.825 1964.581 1380.2 1964.581 1391.803z"/></g><g><path fill="#fff" d="M1232.569 761.392c-49.189 0-89.063 38.526-89.063 86.016 0-47.49-39.873-86.016-89.093-86.016 49.219 0 89.093-38.555 89.093-86.073C1143.507 722.837 1183.38 761.392 1232.569 761.392zM852.531 1562.281c-36.417 0-65.947 28.506-65.947 63.692 0-35.185-29.502-63.692-65.919-63.692 36.417 0 65.919-28.506 65.919-63.661C786.583 1533.775 816.114 1562.281 852.531 1562.281zM1582.755 1547.164c-25.078 0-45.381 19.599-45.381 43.798 0-24.199-20.333-43.798-45.381-43.798 25.049 0 45.381-19.657 45.381-43.857C1537.374 1527.506 1557.676 1547.164 1582.755 1547.164zM2092.404 1494.224c-25.02 0-45.323 19.599-45.323 43.798 0-24.199-20.332-43.798-45.411-43.798 25.079 0 45.411-19.658 45.411-43.857C2047.081 1474.567 2067.384 1494.224 2092.404 1494.224zM2003.868 764.996c-22.324 0-40.458 17.49-40.458 39.111 0-21.621-18.135-39.111-40.431-39.111 22.296 0 40.431-17.49 40.431-39.083C1963.41 747.506 1981.543 764.996 2003.868 764.996z"/></g><g><linearGradient id="aa" x1="1125.606" x2="1125.606" y1="1168.827" y2="1518.309" gradientUnits="userSpaceOnUse"><stop offset=".175" stop-color="#fdf2eb"/><stop offset="1" stop-color="#fbe0b8"/></linearGradient><path fill="url(#aa)" d="M1371.495,1303.502c0,0.849,0.089,1.611,0.089,2.373h-1.905
				c-4.042,4.688-9.433,8.057-15.673,9.375v0.615c0,23.73-19.19,42.919-42.978,42.919c-1.613,0-3.224-0.058-4.718-0.205
				c-12.568,29.034-41.542,49.395-75.264,49.395c-19.248,0-37.03-6.651-50.946-17.813c-19.952,43.74-64.044,74.18-115.196,74.18
				c-57.51,0-105.937-38.349-121.377-90.821c-32.461-3.339-58.302-28.476-63.018-60.526c-0.292-2.08-0.498-4.248-0.645-6.387h-0.234
				l0.234-0.234c-0.058-1.26-0.234-2.432-0.234-3.721h3.047c6.123-7.178,14.474-12.333,24.141-14.355
				c-0.058-0.292-0.058-0.615-0.058-0.967c0-36.65,29.708-66.416,66.387-66.416c2.578,0,4.98,0.264,7.441,0.439
				c19.424-44.941,64.19-76.407,116.22-76.407c47.784,0,89.209,26.485,110.655,65.596c0.585,0.908,1.083,1.786,1.581,2.783
				c12.423-7.587,27.012-12.069,42.657-12.069c37.208,0,68.525,24.873,78.516,58.798c22.383,2.285,40.049,20.625,41.279,43.301
				h0.089C1371.583,1303.444,1371.495,1303.502,1371.495,1303.502z"/><linearGradient id="ab" x1="1043.546" x2="1043.546" y1="1158.424" y2="1355.669" gradientUnits="userSpaceOnUse"><stop offset=".175" stop-color="#fbe0b8"/><stop offset="1" stop-color="#fbe0b8"/></linearGradient><path fill="url(#ab)" d="M1207.462,1210.543c-7.296,5.742-16.466,9.141-26.486,9.141
				c-1.639,0-3.281-0.059-4.804-0.264c-12.568,29.091-41.542,49.482-75.234,49.482c-19.248,0-36.972-6.708-50.976-17.871
				c-19.982,43.74-63.986,74.18-115.196,74.18c-19.453,0-37.792-4.424-54.258-12.216c-0.292-2.08-0.498-4.248-0.645-6.387h-0.234
				l0.234-0.234c-0.058-1.26-0.234-2.432-0.234-3.721h3.047c6.123-7.178,14.474-12.333,24.141-14.355
				c-0.058-0.292-0.058-0.615-0.058-0.967c0-36.65,29.708-66.416,66.387-66.416c2.578,0,4.98,0.264,7.441,0.439
				c19.424-44.941,64.19-76.407,116.22-76.407C1144.591,1144.946,1186.017,1171.432,1207.462,1210.543z"/></g></svg>