<svg xmlns="http://www.w3.org/2000/svg" data-name="Layer 1" viewBox="0 0 64 64"><circle cx="32.75" cy="32" r="27" fill="#e6e7e8"/><path fill="#2a292a" d="M35.51,25.7c-1.09-10-11-4.15-11-4.15s-9.86-5.87-11,4.15c0,0-1.43,11.69-1.74,16.88-.16,2.68,12.7,1,12.7,1s12.86,1.63,12.7-1C36.94,37.38,35.51,25.7,35.51,25.7Z"/><path fill="#39b54a" d="M41.22,57.64A27,27,0,0,1,11.75,49a8.62,8.62,0,0,1,5.93-2.35H31.43a8.7,8.7,0,0,1,8.33,6.2Z"/><path fill="#ffd2b4" d="M24.55,19.16c10.54,0,9.63,10.29,9.63,10.29,1.54-.17,2.76.47,2.76,2.73S36,34.89,34.79,35a.27.27,0,0,0-.25.26c-.36,3.51-2.76,6.09-5.13,7.82a8.19,8.19,0,0,1-9.72,0c-2.37-1.72-4.77-4.31-5.13-7.82a.27.27,0,0,0-.25-.26c-1.21-.13-2.16-.6-2.16-2.85s1.17-2.9,2.71-2.73C14.87,29.44,14,19.16,24.55,19.16Z"/><circle cx="20.78" cy="31.49" r="1.62" fill="#2a292a"/><circle cx="28.33" cy="31.49" r="1.62" fill="#2a292a"/><path fill="#611c24" d="M28.24,35.66a1,1,0,0,1,.93,1.19,4.77,4.77,0,0,1-9.23,0,1,1,0,0,1,.93-1.19Z"/><path fill="#be1e2d" d="M26.86,39.84a4.8,4.8,0,0,1-4.61,0c.19-1.17,1.15-1.5,2.31-1.5S26.67,38.67,26.86,39.84Z"/><path fill="#fff" d="M27.29,35.66v.91a.35.35,0,0,1-.34.35H22.16a.35.35,0,0,1-.34-.35v-.91Z"/><path fill="#2a292a" d="M35.3,29.84c-.36-.11-.41-.21-.42-.35-.71-5.59-2.36-6.78-10.29-6.78S15,23.9,14.28,29.49c0,.14-.09.25-.47.38a13.14,13.14,0,0,1-.21-4c.43-6.54,6.3-8.73,11-8.73s10.52,2.2,11,8.73A13.07,13.07,0,0,1,35.3,29.84Z"/><path fill="#2a292a" d="M15.15 32.6c-.11.67-1 .7-1.13-.05a47.54 47.54 0 0 1-.4-4.83s.7-4 2-5.54 3.82-.23 2.77 1.14C15.63 27 15.26 31.94 15.15 32.6zM33.94 32.6c.11.67 1 .7 1.13-.05a47.54 47.54 0 0 0 .4-4.83s-.7-4-2-5.54-3.82-.23-2.77 1.14C33.46 27 33.83 31.94 33.94 32.6z"/><path fill="#2a292a" d="M29.87,27.86H19.23a1,1,0,0,1-.91-.68l-1.67-5.59H32.46l-1.67,5.59A1,1,0,0,1,29.87,27.86Z"/><path fill="#ffd2b4" d="M28.36,41.83v5.49A1.91,1.91,0,0,1,27.31,49h0a6.16,6.16,0,0,1-5.51,0h0a1.91,1.91,0,0,1-1.06-1.71V41.83Z"/><path fill="#fff" d="M28.36,46.6v.72A1.93,1.93,0,0,1,27.31,49a6.18,6.18,0,0,1-5.51,0,1.93,1.93,0,0,1-1.06-1.72V46.6H18.83v.72a3.78,3.78,0,0,0,2.12,3.41,8,8,0,0,0,7.21,0,3.78,3.78,0,0,0,2.12-3.41V46.6Z" opacity=".2"/><path fill="#262234" d="M28.36,43.82v1.43a8.73,8.73,0,0,1-7.63,0V43.82a8.73,8.73,0,0,0,7.63,0Z" opacity=".1"/><path fill="#39b54a" d="M58.41,22.19H43.34a3.2,3.2,0,0,0-3.19,3.19v9.3a3.2,3.2,0,0,0,3.06,3.18l-.85,3.8a1,1,0,0,0,1.58,1l6.22-4.79h8.26a3.2,3.2,0,0,0,3.19-3.19v-9.3A3.2,3.2,0,0,0,58.41,22.19Z"/><path fill="#fff" d="M49.69,34.21a1.34,1.34,0,0,1-1-.39l-3.27-3.27a1.35,1.35,0,0,1,1.91-1.91l2.32,2.32,4.69-4.69a1.35,1.35,0,0,1,1.91,1.91l-5.65,5.65A1.35,1.35,0,0,1,49.69,34.21Z"/></svg>