<svg xmlns="http://www.w3.org/2000/svg" enable-background="new 0 0 100 100" viewBox="0 0 100 100"><switch><g><circle cx="41.4" cy="34.1" r="4.1"/><circle cx="58.6" cy="34.1" r="4.1"/><path d="M40.9,51.3c1.1,0.7,2.5,0.4,3.2-0.7c1.1-1.8,3.4-2.8,6-2.8c2.5,0,4.8,1.1,6,2.8c0.7,1.1,2.1,1.4,3.2,0.7
				c1.1-0.7,1.4-2.1,0.7-3.2c-2-3.1-5.8-5-9.9-5c-4.1,0-7.9,1.9-9.9,5C39.5,49.1,39.8,50.6,40.9,51.3z"/><path d="M73.9,69.1h-9.4l-1.2-4.6c10.5,0.9,18.4,0.4,16.2-21.7c1.4-1.5,2.1-3.6,2.1-6.6c0-3.7-0.9-6.3-2.7-8
				c-0.5-0.4-1.1-0.8-1.9-1.2C71.6,2.1,53.4,2.5,50.1,2.5c-3.3,0-21.6-0.3-26.9,24.6c-0.9,0.3-1.5,0.8-2,1.2c-1.8,1.6-2.7,4.2-2.7,8
				c0,3,0.7,5.2,2.1,6.6c-2.2,21.9,5.7,22.5,16.1,21.6l-1.2,4.6h-9.4c-8.3,0-15.1,6.7-15.1,15v9.4c0,2.2,1.8,4,4,4h70
				c2.2,0,4-1.8,4-4v-9.4C88.9,75.8,82.2,69.1,73.9,69.1z M28.8,43.2c-0.1-1.4-1.3-2.6-2.7-2.7c-1.7-0.2-3-0.3-3-4.2
				c0-3,0.7-4.1,1.1-4.5c0.1-0.1,0.2-0.2,0.5-0.3c0.2,0.9,0.9,1.6,1.9,1.8c1.3,0.2,2.5-0.6,2.7-1.9c0.4-2.2,1-4.2,1.7-6.1
				c3.9,0.4,9.8-0.9,15.9-3.8c3.1-1.5,5.8-3.2,8.1-4.9c0.9,0.9,1.9,1.9,3,2.8c3.9,3.2,8,5.3,11,5.8c0.7,1.9,1.4,3.9,1.8,6.2
				c0.2,1.1,1.2,1.9,2.3,1.9c0.1,0,0.3,0,0.4,0c1-0.2,1.7-0.9,1.9-1.8c0.3,0.1,0.4,0.2,0.5,0.3c0.4,0.4,1.1,1.5,1.1,4.5
				c0,3.9-1.3,4-3,4.2c-1.4,0.1-2.6,1.3-2.7,2.7c-0.6,6-4.4,11.4-11.1,16.1c-5.9,4.2-14.3,4.2-20.2,0C33.1,54.5,29.4,49.1,28.8,43.2
				z M58.7,75.5l-6.2,4.6c-1.5,1.1-3.5,1.1-5,0l-6.2-4.6c-1.4-1-2-2.8-1.5-4.4l1.6-5.8c2.7,1.2,5.6,1.8,8.6,1.8c3,0,5.9-0.7,8.6-1.8
				l1.6,5.8C60.6,72.8,60,74.5,58.7,75.5z"/></g></switch></svg>