<svg xmlns="http://www.w3.org/2000/svg" width="32" height="32" enable-background="new 0 0 32 32" viewBox="0 0 32 32"><circle cx="17.49" cy="3" r="3"/><path d="M 23.5 0.015625 C 22.671387 0.015625 22 0.6875 22 1.515625 L 22 6.5 C 22 6.7753906 22.225098 7 21.949219 7 L 20.591797 7 L 16.449219 7 L 14.435547 7 C 14.304321 7 14.181335 7.028687 14.068359 7.078125 C 13.829284 7.145447 13.599975 7.2512817 13.412109 7.4394531 L 8.9355469 11.916016 C 8.3496094 12.501953 8.3496094 13.451172 8.9355469 14.037109 L 13.201172 18.560547 C 13.217472 18.576847 13.242384 18.582426 13.240234 18.597656 L 13 20.300781 L 11.935547 25.171875 L 6.9394531 29.335938 C 6.2963867 29.858398 6.2626954 30.801758 6.7851562 31.445312 C 7.081543 31.80957 7.5463867 32 7.9824219 32 C 8.3149414 32 8.6655274 31.889649 8.9433594 31.664062 L 14.451172 27.195312 C 14.695312 26.99707 14.874511 26.727539 14.957031 26.423828 L 15.890625 23 L 19.591797 23 C 19.697571 23 19.543391 22.98517 19.644531 22.96875 L 22 25.472656 L 22 30.5 C 22 31.328125 22.671387 32 23.5 32 C 24.328613 32 25 31.328125 25 30.5 L 25 24.833984 C 25 24.424804 24.832519 24.033203 24.537109 23.75 L 21 20.359375 L 21 10 L 21.949219 10 C 23.878907 10 25 8.4296875 25 6.5 L 25 1.515625 C 25 0.6875 24.328613 0.015625 23.5 0.015625 z M 13 11.580078 L 13 14.373047 L 11.603516 12.976562 L 13 11.580078 z "/></svg>