<svg xmlns="http://www.w3.org/2000/svg" width="102" height="102" viewBox="0 0 102 102"><path fill="#2dc100" d="M102,86.7A15.3,15.3,0,0,1,86.7,102H15.3A15.3,15.3,0,0,1,0,86.7V15.3A15.3,15.3,0,0,1,15.3,0H86.7A15.3,15.3,0,0,1,102,15.3Z" data-name="Path 9"/><g data-name="Group 1" transform="translate(6.658 12.893)"><path fill="#fff" d="M81.2,63.066c-8.232.43-15.391,2.926-21.2,8.564-5.872,5.7-8.553,12.677-7.82,21.33-3.218-.4-6.149-.837-9.1-1.085a5.65,5.65,0,0,0-3.088.523c-2.862,1.615-5.606,3.438-8.858,5.471.6-2.7.983-5.062,1.667-7.336a2.789,2.789,0,0,0-1.269-3.689C21.647,79.867,17.481,69.425,20.6,58.675,23.483,48.73,30.565,42.7,40.19,39.555c13.136-4.291,27.9.086,35.886,10.515a24.58,24.58,0,0,1,5.121,13Zm-37.889-3.35a3.794,3.794,0,0,0-3.652-3.8,3.687,3.687,0,0,0-3.837,3.564,3.643,3.643,0,0,0,3.608,3.78A3.748,3.748,0,0,0,43.308,59.717Zm19.768-3.8a3.8,3.8,0,0,0-3.711,3.741,3.706,3.706,0,0,0,3.809,3.622,3.682,3.682,0,1,0-.1-7.363Z" data-name="Path 10" transform="translate(-19.582 -37.92)"/><path fill="#fff" d="M169.263,169.108c-2.607-1.161-5-2.9-7.544-3.168s-5.2,1.2-7.855,1.469a26.25,26.25,0,0,1-21.293-6.947c-11.355-10.5-9.732-26.606,3.4-35.213,11.676-7.649,28.8-5.1,37.031,5.514,7.184,9.262,6.34,21.556-2.43,29.337-2.538,2.252-3.451,4.1-1.823,7.073A8.421,8.421,0,0,1,169.263,169.108Zm-29.673-28.73a3.067,3.067,0,1,0,.022-6.134,3.067,3.067,0,1,0-.022,6.134Zm19.129-6.127a3.068,3.068,0,0,0-3.044,2.934,3.026,3.026,0,1,0,3.044-2.934Z" data-name="Path 11" transform="translate(-89.152 -92.638)"/></g></svg>